<?xml version="1.0" encoding="UTF-8" standalone="no"?>
<!-- Created with Inkscape (http://www.inkscape.org/) -->

<svg
   width="105.49326mm"
   height="88.88269mm"
   viewBox="0 0 105.49326 88.882692"
   version="1.1"
   id="svg1"
   xml:space="preserve"
   sodipodi:docname="metro.svg"
   inkscape:version="1.4.2 (f4327f4, 2025-05-13)"
   xmlns:inkscape="http://www.inkscape.org/namespaces/inkscape"
   xmlns:sodipodi="http://sodipodi.sourceforge.net/DTD/sodipodi-0.dtd"
   xmlns="http://www.w3.org/2000/svg"
   xmlns:svg="http://www.w3.org/2000/svg"><sodipodi:namedview
     id="namedview1"
     pagecolor="#ffffff"
     bordercolor="#000000"
     borderopacity="0.25"
     inkscape:showpageshadow="2"
     inkscape:pageopacity="0.0"
     inkscape:pagecheckerboard="0"
     inkscape:deskcolor="#d1d1d1"
     inkscape:document-units="mm"
     inkscape:zoom="2.8284271"
     inkscape:cx="148.6692"
     inkscape:cy="169.8824"
     inkscape:window-width="2560"
     inkscape:window-height="1369"
     inkscape:window-x="-8"
     inkscape:window-y="-8"
     inkscape:window-maximized="1"
     inkscape:current-layer="g1"><inkscape:page
       x="0"
       y="0"
       width="105.49326"
       height="88.88269"
       id="page2"
       margin="0"
       bleed="0" /></sodipodi:namedview><defs
     id="defs1" /><g
     id="g1"
     inkscape:groupmode="layer"
     inkscape:label="1"
     transform="matrix(0.26458333,0,0,0.26458334,-46.147304,-26.597625)"
     clip-path="none"><g
       id="group-R5"
       mask="none"><g
         id="g62"
         transform="translate(-182.91431,-113.48698)"><path
           id="path9736"
           d="m 5183.81,-128.34 v -15.57 l 486.24,283.269 v 15.602 L 5183.81,-128.34"
           style="fill:#565045;fill-opacity:1;fill-rule:nonzero;stroke:none"
           transform="matrix(0.13333333,0,0,-0.13333333,0,530.76)"
           clip-path="none" /><path
           id="path9738"
           d="m 5126.64,-95.1016 57.17,-33.2384 486.24,283.301 -57.17,33.211 -486.24,-283.2736"
           style="fill:#70665a;fill-opacity:1;fill-rule:nonzero;stroke:none"
           transform="matrix(0.13333333,0,0,-0.13333333,0,530.76)"
           clip-path="none" /><path
           id="path9740"
           d="m 5067.29,-60.3281 0.02,-15.5703 486.25,283.2694 v 15.598 L 5067.29,-60.3281"
           style="fill:#565045;fill-opacity:1;fill-rule:nonzero;stroke:none"
           transform="matrix(0.13333333,0,0,-0.13333333,0,530.76)"
           clip-path="none" /><path
           id="path9742"
           d="m 5010.11,-27.0898 57.18,-33.2383 486.27,283.2971 -57.18,33.23 -486.27,-283.2888"
           style="fill:#70665a;fill-opacity:1;fill-rule:nonzero;stroke:none"
           transform="matrix(0.13333333,0,0,-0.13333333,0,530.76)"
           clip-path="none" /><path
           id="path9744"
           d="M 4950.79,7.67188 V -7.89844 L 5437.04,275.398 v 15.563 L 4950.79,7.67188"
           style="fill:#565045;fill-opacity:1;fill-rule:nonzero;stroke:none"
           transform="matrix(0.13333333,0,0,-0.13333333,0,530.76)"
           clip-path="none" /><path
           id="path9746"
           d="M 4893.61,40.9414 4950.79,7.67188 5437.04,290.961 5379.85,324.211 4893.61,40.9414"
           style="fill:#70665a;fill-opacity:1;fill-rule:nonzero;stroke:none"
           transform="matrix(0.13333333,0,0,-0.13333333,0,530.76)"
           clip-path="none" /><path
           id="path9748"
           d="M 4777.1,108.93 V 93.3203 l 57.18,-33.1992 V 75.6992 L 4777.1,108.93"
           style="fill:#4f413c;fill-opacity:1;fill-rule:nonzero;stroke:none"
           transform="matrix(0.13333333,0,0,-0.13333333,0,530.76)"
           clip-path="none" /><path
           id="path9748-5"
           d="m 652.48347,525.30116 v 2.08129 l 7.624,4.42656 v -2.07708 l -7.624,-4.43077"
           style="fill:#4f413c;fill-opacity:1;fill-rule:nonzero;stroke:none;stroke-width:0.133333"
           clip-path="none" /><path
           id="path9748-5-1"
           d="m 668.03132,534.37906 v 2.08129 l 7.624,4.42656 v -2.07708 l -7.624,-4.43077"
           style="fill:#4f413c;fill-opacity:1;fill-rule:nonzero;stroke:none;stroke-width:0.133333"
           clip-path="none" /><path
           id="path9750"
           d="M 4834.28,75.6992 V 60.1289 L 5320.54,343.41 v 15.578 L 4834.28,75.6992"
           style="fill:#565045;fill-opacity:1;fill-rule:nonzero;stroke:none"
           transform="matrix(0.13333333,0,0,-0.13333333,0,530.76)"
           clip-path="none" /><path
           id="path9752"
           d="m 4777.1,108.93 57.18,-33.2308 486.26,283.2888 -57.18,33.211 L 4777.1,108.93"
           style="fill:#70665a;fill-opacity:1;fill-rule:nonzero;stroke:none"
           transform="matrix(0.13333333,0,0,-0.13333333,0,530.76)"
           clip-path="none" /><path
           id="path9754"
           d="m 4660.6,176.941 v -15.589 l 57.18,-33.223 v 15.57 l -57.18,33.242"
           style="fill:#4f413c;fill-opacity:1;fill-rule:nonzero;stroke:none"
           transform="matrix(0.13333333,0,0,-0.13333333,0,530.76)"
           clip-path="none" /><path
           id="path9756"
           d="m 4717.78,143.699 v -15.57 l 486.25,283.269 V 427 L 4717.78,143.699"
           style="fill:#565045;fill-opacity:1;fill-rule:nonzero;stroke:none"
           transform="matrix(0.13333333,0,0,-0.13333333,0,530.76)"
           clip-path="none" /><path
           id="path9758"
           d="M 4660.6,176.941 4717.78,143.699 5204.03,427 5146.85,460.211 4660.6,176.941"
           style="fill:#70665a;fill-opacity:1;fill-rule:nonzero;stroke:none"
           transform="matrix(0.13333333,0,0,-0.13333333,0,530.76)"
           clip-path="none" /><path
           id="path9760"
           d="m 4544.08,244.949 v -15.597 l 57.19,-33.211 v 15.57 l -57.19,33.238"
           style="fill:#4f413c;fill-opacity:1;fill-rule:nonzero;stroke:none"
           transform="matrix(0.13333333,0,0,-0.13333333,0,530.76)"
           clip-path="none" /><path
           id="path9762"
           d="m 4601.27,211.711 v -15.57 l 486.24,283.269 v 15.602 L 4601.27,211.711"
           style="fill:#565045;fill-opacity:1;fill-rule:nonzero;stroke:none"
           transform="matrix(0.13333333,0,0,-0.13333333,0,530.76)"
           clip-path="none" /><path
           id="path9764"
           d="m 4544.08,244.949 57.19,-33.238 486.24,283.301 -57.19,33.226 -486.24,-283.289"
           style="fill:#70665a;fill-opacity:1;fill-rule:nonzero;stroke:none"
           transform="matrix(0.13333333,0,0,-0.13333333,0,530.76)"
           clip-path="none" /><path
           id="path9766"
           d="m 4427.58,312.98 v -15.621 l 57.2,-33.218 v 15.57 l -57.2,33.269"
           style="fill:#4f413c;fill-opacity:1;fill-rule:nonzero;stroke:none"
           transform="matrix(0.13333333,0,0,-0.13333333,0,530.76)"
           clip-path="none" /><path
           id="path9768"
           d="m 4484.78,279.711 v -15.57 l 486.24,283.3 v 15.571 L 4484.78,279.711"
           style="fill:#565045;fill-opacity:1;fill-rule:nonzero;stroke:none"
           transform="matrix(0.13333333,0,0,-0.13333333,0,530.76)"
           clip-path="none" /><path
           id="path9770"
           d="m 4427.58,312.98 57.2,-33.269 486.24,283.301 -57.19,33.238 -486.25,-283.27"
           style="fill:#70665a;fill-opacity:1;fill-rule:nonzero;stroke:none"
           transform="matrix(0.13333333,0,0,-0.13333333,0,530.76)"
           clip-path="none" /><path
           id="path9772"
           d="m 4311.07,380.969 v -15.578 l 57.18,-33.219 v 15.566 l -57.18,33.231"
           style="fill:#4f413c;fill-opacity:1;fill-rule:nonzero;stroke:none"
           transform="matrix(0.13333333,0,0,-0.13333333,0,530.76)"
           clip-path="none" /><path
           id="path9774"
           d="m 4368.25,347.738 v -15.566 l 486.24,283.277 v 15.582 L 4368.25,347.738"
           style="fill:#565045;fill-opacity:1;fill-rule:nonzero;stroke:none"
           transform="matrix(0.13333333,0,0,-0.13333333,0,530.76)"
           clip-path="none" /><path
           id="path9776"
           d="m 4311.07,380.969 57.18,-33.231 486.24,283.293 -57.17,33.231 -486.25,-283.293"
           style="fill:#70665a;fill-opacity:1;fill-rule:nonzero;stroke:none"
           transform="matrix(0.13333333,0,0,-0.13333333,0,530.76)"
           clip-path="none" /><path
           id="path9778"
           d="m 4194.56,448.98 v -15.589 l 57.18,-33.219 v 15.566 l -57.18,33.242"
           style="fill:#4f413c;fill-opacity:1;fill-rule:nonzero;stroke:none"
           transform="matrix(0.13333333,0,0,-0.13333333,0,530.76)"
           clip-path="none" /><path
           id="path9780"
           d="m 4251.74,415.738 v -15.566 l 486.25,283.277 v 15.59 L 4251.74,415.738"
           style="fill:#565045;fill-opacity:1;fill-rule:nonzero;stroke:none"
           transform="matrix(0.13333333,0,0,-0.13333333,0,530.76)"
           clip-path="none" /><path
           id="path9782"
           d="m 4194.56,448.98 57.18,-33.242 486.25,283.301 -57.17,33.242 -486.26,-283.301"
           style="fill:#70665a;fill-opacity:1;fill-rule:nonzero;stroke:none"
           transform="matrix(0.13333333,0,0,-0.13333333,0,530.76)"
           clip-path="none" /><path
           id="path9784"
           d="m 4078.07,517.02 v -15.629 l 57.17,-33.211 v 15.57 l -57.17,33.27"
           style="fill:#4f413c;fill-opacity:1;fill-rule:nonzero;stroke:none"
           transform="matrix(0.13333333,0,0,-0.13333333,0,530.76)"
           clip-path="none" /><path
           id="path9786"
           d="m 4135.25,483.75 v -15.57 l 486.23,283.289 v 15.582 L 4135.25,483.75"
           style="fill:#565045;fill-opacity:1;fill-rule:nonzero;stroke:none"
           transform="matrix(0.13333333,0,0,-0.13333333,0,530.76)"
           clip-path="none" /><path
           id="path9788"
           d="m 4078.07,517.02 57.18,-33.27 486.23,283.301 -57.17,33.23 -486.24,-283.261"
           style="fill:#70665a;fill-opacity:1;fill-rule:nonzero;stroke:none"
           transform="matrix(0.13333333,0,0,-0.13333333,0,530.76)"
           clip-path="none" /><path
           id="path9790"
           d="m 3961.55,585.02 v -15.622 l 57.17,-33.187 v 15.57 l -57.17,33.239"
           style="fill:#4f413c;fill-opacity:1;fill-rule:nonzero;stroke:none"
           transform="matrix(0.13333333,0,0,-0.13333333,0,530.76)"
           clip-path="none" /><path
           id="path9792"
           d="m 4018.72,551.781 v -15.57 l 486.27,283.269 v 15.598 L 4018.72,551.781"
           style="fill:#565045;fill-opacity:1;fill-rule:nonzero;stroke:none"
           transform="matrix(0.13333333,0,0,-0.13333333,0,530.76)"
           clip-path="none" /><path
           id="path9794"
           d="m 3961.55,585.02 57.17,-33.239 486.27,283.297 -57.2,33.211 -486.24,-283.269"
           style="fill:#70665a;fill-opacity:1;fill-rule:nonzero;stroke:none"
           transform="matrix(0.13333333,0,0,-0.13333333,0,530.76)"
           clip-path="none" /><path
           id="path9796"
           d="M 3845.05,653.031 V 637.43 l 57.18,-33.211 v 15.562 l -57.18,33.25"
           style="fill:#4f413c;fill-opacity:1;fill-rule:nonzero;stroke:none"
           transform="matrix(0.13333333,0,0,-0.13333333,0,530.76)"
           clip-path="none" /><path
           id="path9798"
           d="m 3902.23,619.781 v -15.562 l 486.24,283.269 V 903.07 L 3902.23,619.781"
           style="fill:#565045;fill-opacity:1;fill-rule:nonzero;stroke:none"
           transform="matrix(0.13333333,0,0,-0.13333333,0,530.76)"
           clip-path="none" /><path
           id="path9800"
           d="m 3845.05,653.031 57.18,-33.25 486.24,283.289 -57.18,33.25 -486.24,-283.289"
           style="fill:#70665a;fill-opacity:1;fill-rule:nonzero;stroke:none"
           transform="matrix(0.13333333,0,0,-0.13333333,0,530.76)"
           clip-path="none" /><path
           id="path9802"
           d="M 3728.54,721.059 V 705.43 l 57.17,-33.219 v 15.578 l -57.17,33.27"
           style="fill:#4f413c;fill-opacity:1;fill-rule:nonzero;stroke:none"
           transform="matrix(0.13333333,0,0,-0.13333333,0,530.76)"
           clip-path="none" /><path
           id="path9804"
           d="m 3785.71,687.789 v -15.578 l 486.25,283.309 v 15.558 L 3785.71,687.789"
           style="fill:#565045;fill-opacity:1;fill-rule:nonzero;stroke:none"
           transform="matrix(0.13333333,0,0,-0.13333333,0,530.76)"
           clip-path="none" /><path
           id="path9806"
           d="m 3728.54,721.059 57.17,-33.27 486.25,283.289 -57.18,33.242 -486.24,-283.261"
           style="fill:#70665a;fill-opacity:1;fill-rule:nonzero;stroke:none"
           transform="matrix(0.13333333,0,0,-0.13333333,0,530.76)"
           clip-path="none" /><path
           id="path9808"
           d="m 3612.04,789.059 v -15.618 l 57.18,-33.203 v 15.551 l -57.18,33.27"
           style="fill:#4f413c;fill-opacity:1;fill-rule:nonzero;stroke:none"
           transform="matrix(0.13333333,0,0,-0.13333333,0,530.76)"
           clip-path="none" /><path
           id="path9810"
           d="m 3669.22,755.789 v -15.551 l 486.24,283.272 v 15.58 L 3669.22,755.789"
           style="fill:#565045;fill-opacity:1;fill-rule:nonzero;stroke:none"
           transform="matrix(0.13333333,0,0,-0.13333333,0,530.76)"
           clip-path="none" /><path
           id="path9812"
           d="m 3612.04,789.059 57.18,-33.27 486.24,283.301 -57.18,33.23 -486.24,-283.261"
           style="fill:#70665a;fill-opacity:1;fill-rule:nonzero;stroke:none"
           transform="matrix(0.13333333,0,0,-0.13333333,0,530.76)"
           clip-path="none" /><path
           id="path9814"
           d="m 3495.51,857.059 v -15.598 l 57.18,-33.211 v 15.57 l -57.18,33.239"
           style="fill:#4f413c;fill-opacity:1;fill-rule:nonzero;stroke:none"
           transform="matrix(0.13333333,0,0,-0.13333333,0,530.76)"
           clip-path="none" /><path
           id="path9816"
           d="m 3552.69,823.82 v -15.57 l 486.24,283.27 v 15.6 l -486.24,-283.3"
           style="fill:#565045;fill-opacity:1;fill-rule:nonzero;stroke:none"
           transform="matrix(0.13333333,0,0,-0.13333333,0,530.76)"
           clip-path="none" /><path
           id="path9818"
           d="m 3495.51,857.059 57.18,-33.239 486.24,283.3 -57.17,33.21 -486.25,-283.271"
           style="fill:#70665a;fill-opacity:1;fill-rule:nonzero;stroke:none"
           transform="matrix(0.13333333,0,0,-0.13333333,0,530.76)"
           clip-path="none" /><path
           id="path9820"
           d="m 3379,925.07 v -15.601 l 57.18,-33.207 V 891.82 L 3379,925.07"
           style="fill:#4f413c;fill-opacity:1;fill-rule:nonzero;stroke:none"
           transform="matrix(0.13333333,0,0,-0.13333333,0,530.76)"
           clip-path="none" /><path
           id="path9822"
           d="m 3436.18,891.82 v -15.558 l 486.27,283.268 v 15.6 L 3436.18,891.82"
           style="fill:#565045;fill-opacity:1;fill-rule:nonzero;stroke:none"
           transform="matrix(0.13333333,0,0,-0.13333333,0,530.76)"
           clip-path="none" /><path
           id="path9824"
           d="m 3379,925.07 57.18,-33.25 486.27,283.31 -57.19,33.23 L 3379,925.07"
           style="fill:#70665a;fill-opacity:1;fill-rule:nonzero;stroke:none"
           transform="matrix(0.13333333,0,0,-0.13333333,0,530.76)"
           clip-path="none" /><path
           id="path9826"
           d="M 3262.5,993.059 V 977.48 l 57.19,-33.218 v 15.566 l -57.19,33.231"
           style="fill:#4f413c;fill-opacity:1;fill-rule:nonzero;stroke:none"
           transform="matrix(0.13333333,0,0,-0.13333333,0,530.76)"
           clip-path="none" /><path
           id="path9828"
           d="m 3319.69,959.828 v -15.566 l 486.24,283.298 v 15.56 L 3319.69,959.828"
           style="fill:#565045;fill-opacity:1;fill-rule:nonzero;stroke:none"
           transform="matrix(0.13333333,0,0,-0.13333333,0,530.76)"
           clip-path="none" /><path
           id="path9830"
           d="m 3262.51,993.059 57.18,-33.231 486.24,283.292 -57.18,33.24 -486.24,-283.301"
           style="fill:#70665a;fill-opacity:1;fill-rule:nonzero;stroke:none"
           transform="matrix(0.13333333,0,0,-0.13333333,0,530.76)"
           clip-path="none" /><path
           id="path9832"
           d="m 3145.99,1061.07 v -15.56 l 57.18,-33.23 v 15.58 l -57.18,33.21"
           style="fill:#4f413c;fill-opacity:1;fill-rule:nonzero;stroke:none"
           transform="matrix(0.13333333,0,0,-0.13333333,0,530.76)"
           clip-path="none" /><path
           id="path9834"
           d="m 3203.17,1027.86 v -15.58 l 486.26,283.29 v 15.58 l -486.26,-283.29"
           style="fill:#565045;fill-opacity:1;fill-rule:nonzero;stroke:none"
           transform="matrix(0.13333333,0,0,-0.13333333,0,530.76)"
           clip-path="none" /><path
           id="path9836"
           d="m 3145.99,1061.07 57.18,-33.21 486.26,283.29 -57.2,33.22 -486.24,-283.3"
           style="fill:#70665a;fill-opacity:1;fill-rule:nonzero;stroke:none"
           transform="matrix(0.13333333,0,0,-0.13333333,0,530.76)"
           clip-path="none" /><path
           id="path9838"
           d="m 3029.49,1129.1 v -15.6 l 57.19,-33.21 v 15.57 l -57.19,33.24"
           style="fill:#4f413c;fill-opacity:1;fill-rule:nonzero;stroke:none"
           transform="matrix(0.13333333,0,0,-0.13333333,0,530.76)"
           clip-path="none" /><path
           id="path9840"
           d="m 3086.68,1095.86 v -15.57 l 486.25,283.27 v 15.6 l -486.25,-283.3"
           style="fill:#565045;fill-opacity:1;fill-rule:nonzero;stroke:none"
           transform="matrix(0.13333333,0,0,-0.13333333,0,530.76)"
           clip-path="none" /><path
           id="path9842"
           d="m 3029.49,1129.1 57.19,-33.24 486.25,283.3 -57.2,33.24 -486.24,-283.3"
           style="fill:#70665a;fill-opacity:1;fill-rule:nonzero;stroke:none"
           transform="matrix(0.13333333,0,0,-0.13333333,0,530.76)"
           clip-path="none" /><path
           id="path9844"
           d="m 2912.98,1197.11 v -15.6 l 57.18,-33.21 v 15.56 l -57.18,33.25"
           style="fill:#4f413c;fill-opacity:1;fill-rule:nonzero;stroke:none"
           transform="matrix(0.13333333,0,0,-0.13333333,0,530.76)"
           clip-path="none" /><path
           id="path9846"
           d="m 2970.16,1163.86 v -15.56 l 486.24,283.29 v 15.58 l -486.24,-283.31"
           style="fill:#565045;fill-opacity:1;fill-rule:nonzero;stroke:none"
           transform="matrix(0.13333333,0,0,-0.13333333,0,530.76)"
           clip-path="none" /><path
           id="path9848"
           d="m 2912.98,1197.11 57.18,-33.25 486.24,283.31 -57.18,33.23 -486.24,-283.29"
           style="fill:#70665a;fill-opacity:1;fill-rule:nonzero;stroke:none"
           transform="matrix(0.13333333,0,0,-0.13333333,0,530.76)"
           clip-path="none" /><path
           id="path9850"
           d="m 2796.45,1265.11 0.03,-15.59 57.18,-33.22 v 15.59 l -57.21,33.22"
           style="fill:#4f413c;fill-opacity:1;fill-rule:nonzero;stroke:none"
           transform="matrix(0.13333333,0,0,-0.13333333,0,530.76)"
           clip-path="none" /><path
           id="path9852"
           d="m 2853.66,1231.89 v -15.59 l 486.24,283.3 v 15.59 l -486.24,-283.3"
           style="fill:#565045;fill-opacity:1;fill-rule:nonzero;stroke:none"
           transform="matrix(0.13333333,0,0,-0.13333333,0,530.76)"
           clip-path="none" /><path
           id="path9854"
           d="m 2796.45,1265.11 57.21,-33.22 486.24,283.3 -57.18,33.22 -486.27,-283.3"
           style="fill:#70665a;fill-opacity:1;fill-rule:nonzero;stroke:none"
           transform="matrix(0.13333333,0,0,-0.13333333,0,530.76)"
           clip-path="none" /><path
           id="path9856"
           d="m 2679.97,1333.11 v -15.56 l 57.18,-33.25 v 15.6 l -57.18,33.21"
           style="fill:#4f413c;fill-opacity:1;fill-rule:nonzero;stroke:none"
           transform="matrix(0.13333333,0,0,-0.13333333,0,530.76)"
           clip-path="none" /><path
           id="path9858"
           d="m 2737.15,1299.9 v -15.6 l 486.24,283.31 v 15.58 L 2737.15,1299.9"
           style="fill:#565045;fill-opacity:1;fill-rule:nonzero;stroke:none"
           transform="matrix(0.13333333,0,0,-0.13333333,0,530.76)"
           clip-path="none" /><path
           id="path9860"
           d="m 2679.97,1333.11 57.18,-33.21 486.24,283.29 -57.17,33.22 -486.25,-283.3"
           style="fill:#70665a;fill-opacity:1;fill-rule:nonzero;stroke:none"
           transform="matrix(0.13333333,0,0,-0.13333333,0,530.76)"
           clip-path="none" /><path
           id="path9862"
           d="m 5066.8,-60.3516 0.04,-9.0273 486.26,283.3009 -0.05,9.019 -486.25,-283.2926"
           style="fill:#5e4534;fill-opacity:1;fill-rule:nonzero;stroke:none"
           transform="matrix(0.13333333,0,0,-0.13333333,0,530.76)"
           clip-path="none" /><path
           id="path9864"
           d="m 5009.61,-27.0898 57.19,-33.2618 486.25,283.2926 -57.22,33.258 -486.22,-283.2888"
           style="fill:#6b5a53;fill-opacity:1;fill-rule:nonzero;stroke:none"
           transform="matrix(0.13333333,0,0,-0.13333333,0,530.76)"
           clip-path="none" /><path
           id="path9866"
           d="M 5657.41,126.621 3109.03,1607.6 l -9.24,-5.35 2548.36,-1480.949 9.26,5.32"
           style="fill:#c1beab;fill-opacity:1;fill-rule:nonzero;stroke:none"
           transform="matrix(0.13333333,0,0,-0.13333333,0,530.76)"
           clip-path="none" /><path
           id="path9868"
           d="m 5637.69,115.27 -2548.35,1480.95 -9.1,-5.25 2548.37,-1480.95 9.08,5.25"
           style="fill:#e0dcc6;fill-opacity:1;fill-rule:nonzero;stroke:none"
           transform="matrix(0.13333333,0,0,-0.13333333,0,530.76)"
           clip-path="none" /><path
           id="path9870"
           d="m 5628.61,110.02 -2548.37,1480.95 0.02,-7.78 2548.36,-1480.971 -0.01,7.801"
           style="fill:#c2bea8;fill-opacity:1;fill-rule:nonzero;stroke:none"
           transform="matrix(0.13333333,0,0,-0.13333333,0,530.76)"
           clip-path="none" /><path
           id="path9872"
           d="m 5637.64,137.73 -2548.37,1480.95 0.07,-22.46 2548.35,-1480.95 -0.05,22.46"
           style="fill:#a09787;fill-opacity:1;fill-rule:nonzero;stroke:none"
           transform="matrix(0.13333333,0,0,-0.13333333,0,530.76)"
           clip-path="none" /><path
           id="path9874"
           d="m 5631.14,141.77 -2548.36,1480.95 0.01,-7.78 L 5631.15,134 l -0.01,7.77"
           style="fill:#c2bea8;fill-opacity:1;fill-rule:nonzero;stroke:none"
           transform="matrix(0.13333333,0,0,-0.13333333,0,530.76)"
           clip-path="none" /><path
           id="path9876"
           d="m 5654.53,155.289 -2548.37,1480.921 -23.38,-13.49 2548.36,-1480.95 23.39,13.519"
           style="fill:#f4f3ea;fill-opacity:1;fill-rule:nonzero;stroke:none"
           transform="matrix(0.13333333,0,0,-0.13333333,0,530.76)"
           clip-path="none" /><path
           id="path9878"
           d="m 5265.9,-99.418 -2548.38,1480.958 -9.23,-5.33 2548.39,-1480.929 9.22,5.301"
           style="fill:#c1beab;fill-opacity:1;fill-rule:nonzero;stroke:none"
           transform="matrix(0.13333333,0,0,-0.13333333,0,530.76)"
           clip-path="none" /><path
           id="path9880"
           d="m 5246.2,-110.809 -2548.36,1480.949 -9.1,-5.22 2548.38,-1480.959 9.08,5.23"
           style="fill:#e0dcc6;fill-opacity:1;fill-rule:nonzero;stroke:none"
           transform="matrix(0.13333333,0,0,-0.13333333,0,530.76)"
           clip-path="none" /><path
           id="path9882"
           d="m 5237.12,-116.039 -2548.38,1480.959 0.04,-7.77 2548.37,-1480.951 -0.03,7.762"
           style="fill:#c2bea8;fill-opacity:1;fill-rule:nonzero;stroke:none"
           transform="matrix(0.13333333,0,0,-0.13333333,0,530.76)"
           clip-path="none" /><path
           id="path9884"
           d="M 5246.14,-88.3203 2697.78,1392.61 l 0.06,-22.47 2548.36,-1480.949 -0.06,22.4887"
           style="fill:#a09787;fill-opacity:1;fill-rule:nonzero;stroke:none"
           transform="matrix(0.13333333,0,0,-0.13333333,0,530.76)"
           clip-path="none" /><path
           id="path9886"
           d="M 5239.64,-84.2891 2691.28,1396.67 l 0.02,-7.8 2548.39,-1480.9208 -0.05,7.7617"
           style="fill:#c2bea8;fill-opacity:1;fill-rule:nonzero;stroke:none"
           transform="matrix(0.13333333,0,0,-0.13333333,0,530.76)"
           clip-path="none" /><path
           id="path9888"
           d="M 5263.06,-70.7617 2714.68,1410.15 l -23.4,-13.48 2548.36,-1480.9591 23.42,13.5274"
           style="fill:#f4f3ea;fill-opacity:1;fill-rule:nonzero;stroke:none"
           transform="matrix(0.13333333,0,0,-0.13333333,0,530.76)"
           clip-path="none" /><path
           id="path9890"
           d="m 5308.27,272.238 0.02,-3.066 34.55,-20.07 -0.03,3.07 -34.54,20.066"
           style="fill:#918779;fill-opacity:1;fill-rule:nonzero;stroke:none"
           transform="matrix(0.13333333,0,0,-0.13333333,0,530.76)"
           clip-path="none" /><path
           id="path9892"
           d="m 5308.27,272.238 34.54,-20.066 17.71,10.219 -34.55,20.089 -17.7,-10.242"
           style="fill:#b5aa95;fill-opacity:1;fill-rule:nonzero;stroke:none"
           transform="matrix(0.13333333,0,0,-0.13333333,0,530.76)"
           clip-path="none" /><path
           id="path9894"
           d="m 5191.78,340.238 v -3.039 l 34.53,-20.07 v 3.043 l -34.53,20.066"
           style="fill:#918779;fill-opacity:1;fill-rule:nonzero;stroke:none"
           transform="matrix(0.13333333,0,0,-0.13333333,0,530.76)"
           clip-path="none" /><path
           id="path9896"
           d="m 5226.31,320.172 v -3.043 l 17.72,10.199 v 3.07 l -17.72,-10.226"
           style="fill:#918779;fill-opacity:1;fill-rule:nonzero;stroke:none"
           transform="matrix(0.13333333,0,0,-0.13333333,0,530.76)"
           clip-path="none" /><path
           id="path9898"
           d="m 5191.78,340.238 34.53,-20.066 17.72,10.226 -34.59,20.082 -17.66,-10.242"
           style="fill:#b5aa95;fill-opacity:1;fill-rule:nonzero;stroke:none"
           transform="matrix(0.13333333,0,0,-0.13333333,0,530.76)"
           clip-path="none" /><path
           id="path9900"
           d="m 5075.25,408.281 v -3.082 l 34.56,-20.07 -0.01,3.07 -34.55,20.082"
           style="fill:#918779;fill-opacity:1;fill-rule:nonzero;stroke:none"
           transform="matrix(0.13333333,0,0,-0.13333333,0,530.76)"
           clip-path="none" /><path
           id="path9902"
           d="m 5109.8,388.199 0.01,-3.07 17.69,10.211 v 3.07 l -17.7,-10.211"
           style="fill:#918779;fill-opacity:1;fill-rule:nonzero;stroke:none"
           transform="matrix(0.13333333,0,0,-0.13333333,0,530.76)"
           clip-path="none" /><path
           id="path9904"
           d="m 4958.74,476.289 0.01,-3.078 34.56,-20.082 v 3.07 l -34.57,20.09"
           style="fill:#918779;fill-opacity:1;fill-rule:nonzero;stroke:none"
           transform="matrix(0.13333333,0,0,-0.13333333,0,530.76)"
           clip-path="none" /><path
           id="path9906"
           d="m 4993.31,456.199 v -3.07 l 17.7,10.211 -0.02,3.09 -17.68,-10.231"
           style="fill:#918779;fill-opacity:1;fill-rule:nonzero;stroke:none"
           transform="matrix(0.13333333,0,0,-0.13333333,0,530.76)"
           clip-path="none" /><path
           id="path9908"
           d="m 4958.74,476.289 34.57,-20.09 17.68,10.231 -34.56,20.082 -17.69,-10.223"
           style="fill:#b5aa95;fill-opacity:1;fill-rule:nonzero;stroke:none"
           transform="matrix(0.13333333,0,0,-0.13333333,0,530.76)"
           clip-path="none" /><path
           id="path9910"
           d="m 4842.24,544.301 v -3.09 l 34.57,-20.051 -0.02,3.051 -34.55,20.09"
           style="fill:#918779;fill-opacity:1;fill-rule:nonzero;stroke:none"
           transform="matrix(0.13333333,0,0,-0.13333333,0,530.76)"
           clip-path="none" /><path
           id="path9912"
           d="m 4876.79,524.211 0.02,-3.051 17.69,10.199 v 3.071 l -17.71,-10.219"
           style="fill:#918779;fill-opacity:1;fill-rule:nonzero;stroke:none"
           transform="matrix(0.13333333,0,0,-0.13333333,0,530.76)"
           clip-path="none" /><path
           id="path9914"
           d="m 4842.24,544.301 34.55,-20.09 17.71,10.219 -34.56,20.09 -17.7,-10.219"
           style="fill:#b5aa95;fill-opacity:1;fill-rule:nonzero;stroke:none"
           transform="matrix(0.13333333,0,0,-0.13333333,0,530.76)"
           clip-path="none" /><path
           id="path9916"
           d="m 4725.72,612.281 0.02,-3.031 34.55,-20.078 v 3.058 l -34.57,20.051"
           style="fill:#918779;fill-opacity:1;fill-rule:nonzero;stroke:none"
           transform="matrix(0.13333333,0,0,-0.13333333,0,530.76)"
           clip-path="none" /><path
           id="path9918"
           d="m 4760.29,592.23 v -3.058 l 17.71,10.199 -0.03,3.07 -17.68,-10.211"
           style="fill:#918779;fill-opacity:1;fill-rule:nonzero;stroke:none"
           transform="matrix(0.13333333,0,0,-0.13333333,0,530.76)"
           clip-path="none" /><path
           id="path9920"
           d="m 4725.72,612.281 34.57,-20.051 17.68,10.211 -34.54,20.09 -17.71,-10.25"
           style="fill:#b5aa95;fill-opacity:1;fill-rule:nonzero;stroke:none"
           transform="matrix(0.13333333,0,0,-0.13333333,0,530.76)"
           clip-path="none" /><path
           id="path9922"
           d="m 4609.22,680.32 v -3.07 l 34.56,-20.07 v 3.058 l -34.56,20.082"
           style="fill:#918779;fill-opacity:1;fill-rule:nonzero;stroke:none"
           transform="matrix(0.13333333,0,0,-0.13333333,0,530.76)"
           clip-path="none" /><path
           id="path9924"
           d="m 4643.78,660.238 v -3.058 l 17.7,10.199 v 3.101 l -17.7,-10.242"
           style="fill:#918779;fill-opacity:1;fill-rule:nonzero;stroke:none"
           transform="matrix(0.13333333,0,0,-0.13333333,0,530.76)"
           clip-path="none" /><path
           id="path9926"
           d="m 4609.22,680.32 34.56,-20.082 17.7,10.242 -34.57,20.051 -17.69,-10.211"
           style="fill:#b5aa95;fill-opacity:1;fill-rule:nonzero;stroke:none"
           transform="matrix(0.13333333,0,0,-0.13333333,0,530.76)"
           clip-path="none" /><path
           id="path9928"
           d="m 4492.71,748.332 0.02,-3.082 34.55,-20.051 -0.01,3.039 -34.56,20.094"
           style="fill:#918779;fill-opacity:1;fill-rule:nonzero;stroke:none"
           transform="matrix(0.13333333,0,0,-0.13333333,0,530.76)"
           clip-path="none" /><path
           id="path9930"
           d="m 4527.27,728.238 0.01,-3.039 17.69,10.18 v 3.09 l -17.7,-10.231"
           style="fill:#918779;fill-opacity:1;fill-rule:nonzero;stroke:none"
           transform="matrix(0.13333333,0,0,-0.13333333,0,530.76)"
           clip-path="none" /><path
           id="path9932"
           d="m 4492.71,748.332 34.56,-20.094 17.7,10.231 -34.56,20.082 -17.7,-10.219"
           style="fill:#b5aa95;fill-opacity:1;fill-rule:nonzero;stroke:none"
           transform="matrix(0.13333333,0,0,-0.13333333,0,530.76)"
           clip-path="none" /><path
           id="path9934"
           d="m 4376.22,816.34 v -3.051 l 34.55,-20.09 v 3.051 l -34.55,20.09"
           style="fill:#918779;fill-opacity:1;fill-rule:nonzero;stroke:none"
           transform="matrix(0.13333333,0,0,-0.13333333,0,530.76)"
           clip-path="none" /><path
           id="path9936"
           d="m 4410.77,796.25 v -3.051 l 17.7,10.211 v 3.059 l -17.7,-10.219"
           style="fill:#918779;fill-opacity:1;fill-rule:nonzero;stroke:none"
           transform="matrix(0.13333333,0,0,-0.13333333,0,530.76)"
           clip-path="none" /><path
           id="path9938"
           d="m 4376.22,816.34 34.55,-20.09 17.7,10.219 -34.57,20.09 -17.68,-10.219"
           style="fill:#b5aa95;fill-opacity:1;fill-rule:nonzero;stroke:none"
           transform="matrix(0.13333333,0,0,-0.13333333,0,530.76)"
           clip-path="none" /><path
           id="path9940"
           d="m 4259.69,884.359 v -3.058 l 34.58,-20.09 -0.03,3.07 -34.55,20.078"
           style="fill:#918779;fill-opacity:1;fill-rule:nonzero;stroke:none"
           transform="matrix(0.13333333,0,0,-0.13333333,0,530.76)"
           clip-path="none" /><path
           id="path9942"
           d="m 4294.24,864.281 0.03,-3.07 17.69,10.199 v 3.07 l -17.72,-10.199"
           style="fill:#918779;fill-opacity:1;fill-rule:nonzero;stroke:none"
           transform="matrix(0.13333333,0,0,-0.13333333,0,530.76)"
           clip-path="none" /><path
           id="path9944"
           d="m 4259.69,884.359 34.55,-20.078 17.72,10.199 -34.56,20.09 -17.71,-10.211"
           style="fill:#b5aa95;fill-opacity:1;fill-rule:nonzero;stroke:none"
           transform="matrix(0.13333333,0,0,-0.13333333,0,530.76)"
           clip-path="none" /><path
           id="path9946"
           d="m 4143.18,952.359 0.02,-3.07 34.55,-20.07 v 3.062 l -34.57,20.078"
           style="fill:#918779;fill-opacity:1;fill-rule:nonzero;stroke:none"
           transform="matrix(0.13333333,0,0,-0.13333333,0,530.76)"
           clip-path="none" /><path
           id="path9948"
           d="m 4177.75,932.281 v -3.062 l 17.71,10.203 -0.03,3.098 -17.68,-10.239"
           style="fill:#918779;fill-opacity:1;fill-rule:nonzero;stroke:none"
           transform="matrix(0.13333333,0,0,-0.13333333,0,530.76)"
           clip-path="none" /><path
           id="path9950"
           d="m 4143.18,952.359 34.57,-20.078 17.68,10.239 -34.55,20.07 -17.7,-10.231"
           style="fill:#b5aa95;fill-opacity:1;fill-rule:nonzero;stroke:none"
           transform="matrix(0.13333333,0,0,-0.13333333,0,530.76)"
           clip-path="none" /><path
           id="path9952"
           d="m 4026.69,1020.37 v -3.05 l 34.55,-20.082 v 3.052 l -34.55,20.08"
           style="fill:#918779;fill-opacity:1;fill-rule:nonzero;stroke:none"
           transform="matrix(0.13333333,0,0,-0.13333333,0,530.76)"
           clip-path="none" /><path
           id="path9954"
           d="m 4061.24,1000.29 v -3.052 l 17.7,10.212 v 3.07 l -17.7,-10.23"
           style="fill:#918779;fill-opacity:1;fill-rule:nonzero;stroke:none"
           transform="matrix(0.13333333,0,0,-0.13333333,0,530.76)"
           clip-path="none" /><path
           id="path9956"
           d="m 4026.69,1020.37 34.55,-20.08 17.7,10.23 -34.55,20.07 -17.7,-10.22"
           style="fill:#b5aa95;fill-opacity:1;fill-rule:nonzero;stroke:none"
           transform="matrix(0.13333333,0,0,-0.13333333,0,530.76)"
           clip-path="none" /><path
           id="path9958"
           d="m 3910.17,1088.38 0.02,-3.05 34.55,-20.11 v 3.1 l -34.57,20.06"
           style="fill:#918779;fill-opacity:1;fill-rule:nonzero;stroke:none"
           transform="matrix(0.13333333,0,0,-0.13333333,0,530.76)"
           clip-path="none" /><path
           id="path9960"
           d="m 3944.74,1068.32 v -3.1 l 17.71,10.23 -0.02,3.07 -17.69,-10.2"
           style="fill:#918779;fill-opacity:1;fill-rule:nonzero;stroke:none"
           transform="matrix(0.13333333,0,0,-0.13333333,0,530.76)"
           clip-path="none" /><path
           id="path9962"
           d="m 3910.17,1088.38 34.57,-20.06 17.69,10.2 -34.55,20.08 -17.71,-10.22"
           style="fill:#b5aa95;fill-opacity:1;fill-rule:nonzero;stroke:none"
           transform="matrix(0.13333333,0,0,-0.13333333,0,530.76)"
           clip-path="none" /><path
           id="path9964"
           d="m 3793.68,1156.4 v -3.06 l 34.54,-20.09 v 3.07 l -34.54,20.08"
           style="fill:#918779;fill-opacity:1;fill-rule:nonzero;stroke:none"
           transform="matrix(0.13333333,0,0,-0.13333333,0,530.76)"
           clip-path="none" /><path
           id="path9966"
           d="m 3828.22,1136.32 v -3.07 l 17.71,10.21 v 3.1 l -17.71,-10.24"
           style="fill:#918779;fill-opacity:1;fill-rule:nonzero;stroke:none"
           transform="matrix(0.13333333,0,0,-0.13333333,0,530.76)"
           clip-path="none" /><path
           id="path9968"
           d="m 3793.68,1156.4 34.54,-20.08 17.71,10.24 -34.57,20.05 -17.68,-10.21"
           style="fill:#b5aa95;fill-opacity:1;fill-rule:nonzero;stroke:none"
           transform="matrix(0.13333333,0,0,-0.13333333,0,530.76)"
           clip-path="none" /><path
           id="path9970"
           d="m 3677.15,1224.4 0.03,-3.07 34.54,-20.07 -0.01,3.06 -34.56,20.08"
           style="fill:#918779;fill-opacity:1;fill-rule:nonzero;stroke:none"
           transform="matrix(0.13333333,0,0,-0.13333333,0,530.76)"
           clip-path="none" /><path
           id="path9972"
           d="m 3711.71,1204.32 0.01,-3.06 17.72,10.22 -0.03,3.09 -17.7,-10.25"
           style="fill:#918779;fill-opacity:1;fill-rule:nonzero;stroke:none"
           transform="matrix(0.13333333,0,0,-0.13333333,0,530.76)"
           clip-path="none" /><path
           id="path9974"
           d="m 3677.15,1224.4 34.56,-20.08 17.7,10.25 -34.54,20.07 -17.72,-10.24"
           style="fill:#b5aa95;fill-opacity:1;fill-rule:nonzero;stroke:none"
           transform="matrix(0.13333333,0,0,-0.13333333,0,530.76)"
           clip-path="none" /><path
           id="path9976"
           d="m 3560.64,1292.41 0.01,-3.05 34.56,-20.09 v 3.08 l -34.57,20.06"
           style="fill:#918779;fill-opacity:1;fill-rule:nonzero;stroke:none"
           transform="matrix(0.13333333,0,0,-0.13333333,0,530.76)"
           clip-path="none" /><path
           id="path9978"
           d="m 3595.21,1272.35 v -3.08 l 17.7,10.22 v 3.07 l -17.7,-10.21"
           style="fill:#918779;fill-opacity:1;fill-rule:nonzero;stroke:none"
           transform="matrix(0.13333333,0,0,-0.13333333,0,530.76)"
           clip-path="none" /><path
           id="path9980"
           d="m 3560.65,1292.41 34.56,-20.06 17.7,10.21 -34.57,20.08 -17.69,-10.23"
           style="fill:#b5aa95;fill-opacity:1;fill-rule:nonzero;stroke:none"
           transform="matrix(0.13333333,0,0,-0.13333333,0,530.76)"
           clip-path="none" /><path
           id="path9982"
           d="m 3444.14,1360.44 v -3.07 l 34.58,-20.11 -0.03,3.1 -34.55,20.08"
           style="fill:#918779;fill-opacity:1;fill-rule:nonzero;stroke:none"
           transform="matrix(0.13333333,0,0,-0.13333333,0,530.76)"
           clip-path="none" /><path
           id="path9984"
           d="m 3478.69,1340.36 0.03,-3.1 17.68,10.24 v 3.09 l -17.71,-10.23"
           style="fill:#918779;fill-opacity:1;fill-rule:nonzero;stroke:none"
           transform="matrix(0.13333333,0,0,-0.13333333,0,530.76)"
           clip-path="none" /><path
           id="path9986"
           d="m 3444.14,1360.44 34.55,-20.08 17.71,10.23 -34.56,20.05 -17.7,-10.2"
           style="fill:#b5aa95;fill-opacity:1;fill-rule:nonzero;stroke:none"
           transform="matrix(0.13333333,0,0,-0.13333333,0,530.76)"
           clip-path="none" /><path
           id="path9988"
           d="m 2819.94,1269.95 v -3.05 l 34.53,-20.07 v 3.05 l -34.53,20.07"
           style="fill:#918779;fill-opacity:1;fill-rule:nonzero;stroke:none"
           transform="matrix(0.13333333,0,0,-0.13333333,0,530.76)"
           clip-path="none" /><path
           id="path9990"
           d="m 2854.47,1249.88 v -3.05 l 17.72,10.21 v 3.07 l -17.72,-10.23"
           style="fill:#918779;fill-opacity:1;fill-rule:nonzero;stroke:none"
           transform="matrix(0.13333333,0,0,-0.13333333,0,530.76)"
           clip-path="none" /><path
           id="path9992"
           d="m 2819.94,1269.95 34.53,-20.07 17.72,10.23 -34.59,20.06 -17.66,-10.22"
           style="fill:#b5aa95;fill-opacity:1;fill-rule:nonzero;stroke:none"
           transform="matrix(0.13333333,0,0,-0.13333333,0,530.76)"
           clip-path="none" /><path
           id="path9994"
           d="m 2703.41,1337.96 0.03,-3.05 34.53,-20.07 -0.01,3.07 -34.55,20.05"
           style="fill:#918779;fill-opacity:1;fill-rule:nonzero;stroke:none"
           transform="matrix(0.13333333,0,0,-0.13333333,0,530.76)"
           clip-path="none" /><path
           id="path9996"
           d="m 2737.96,1317.91 0.01,-3.07 17.72,10.23 -0.03,3.04 -17.7,-10.2"
           style="fill:#918779;fill-opacity:1;fill-rule:nonzero;stroke:none"
           transform="matrix(0.13333333,0,0,-0.13333333,0,530.76)"
           clip-path="none" /><path
           id="path9998"
           d="m 2703.41,1337.96 34.55,-20.05 17.7,10.2 -34.54,20.07 -17.71,-10.22"
           style="fill:#b5aa95;fill-opacity:1;fill-rule:nonzero;stroke:none"
           transform="matrix(0.13333333,0,0,-0.13333333,0,530.76)"
           clip-path="none" /><path
           id="path10000"
           d="m 4800.54,113.781 0.03,-3.07 34.55,-20.0704 v 3.0313 l -34.58,20.1091"
           style="fill:#918779;fill-opacity:1;fill-rule:nonzero;stroke:none"
           transform="matrix(0.13333333,0,0,-0.13333333,0,530.76)"
           clip-path="none" /><path
           id="path10002"
           d="m 4835.12,93.6719 v -3.0313 l 17.7,10.2114 v 3.058 l -17.7,-10.2381"
           style="fill:#918779;fill-opacity:1;fill-rule:nonzero;stroke:none"
           transform="matrix(0.13333333,0,0,-0.13333333,0,530.76)"
           clip-path="none" /><path
           id="path10004"
           d="m 4800.54,113.781 34.58,-20.1091 17.7,10.2381 -34.57,20.07 -17.71,-10.199"
           style="fill:#b5aa95;fill-opacity:1;fill-rule:nonzero;stroke:none"
           transform="matrix(0.13333333,0,0,-0.13333333,0,530.76)"
           clip-path="none" /><path
           id="path10004-1"
           d="m 655.83151,524.88275 4.61066,2.68121 2.36,-1.36508 -4.60933,-2.676 -2.36133,1.35987"
           style="fill:#b5aa95;fill-opacity:1;fill-rule:nonzero;stroke:none;stroke-width:0.133333"
           clip-path="none" /><path
           id="path10004-9"
           d="m 671.56398,534.06127 4.61066,2.68121 2.36,-1.36508 -4.60933,-2.676 -2.36133,1.35987"
           style="fill:#b5aa95;fill-opacity:1;fill-rule:nonzero;stroke:none;stroke-width:0.133333"
           clip-path="none" /><path
           id="path10004-2"
           d="m 687.1513,543.20254 4.61066,2.68121 2.36,-1.36508 -4.60933,-2.676 -2.36133,1.35987"
           style="fill:#b5aa95;fill-opacity:1;fill-rule:nonzero;stroke:none;stroke-width:0.133333"
           clip-path="none" /><path
           id="path10006"
           d="m 4684.04,181.781 v -3.062 l 34.58,-20.09 -0.02,3.082 -34.56,20.07"
           style="fill:#918779;fill-opacity:1;fill-rule:nonzero;stroke:none"
           transform="matrix(0.13333333,0,0,-0.13333333,0,530.76)"
           clip-path="none" /><path
           id="path10008"
           d="m 4718.6,161.711 0.02,-3.082 17.68,10.242 v 3.039 l -17.7,-10.199"
           style="fill:#918779;fill-opacity:1;fill-rule:nonzero;stroke:none"
           transform="matrix(0.13333333,0,0,-0.13333333,0,530.76)"
           clip-path="none" /><path
           id="path10010"
           d="m 4684.04,181.781 34.56,-20.07 17.7,10.199 -34.55,20.078 -17.71,-10.207"
           style="fill:#b5aa95;fill-opacity:1;fill-rule:nonzero;stroke:none"
           transform="matrix(0.13333333,0,0,-0.13333333,0,530.76)"
           clip-path="none" /><path
           id="path10012"
           d="m 4567.53,249.781 0.02,-3.062 34.55,-20.078 v 3.07 l -34.57,20.07"
           style="fill:#918779;fill-opacity:1;fill-rule:nonzero;stroke:none"
           transform="matrix(0.13333333,0,0,-0.13333333,0,530.76)"
           clip-path="none" /><path
           id="path10014"
           d="m 4602.1,229.711 v -3.07 l 17.7,10.23 -0.01,3.07 -17.69,-10.23"
           style="fill:#918779;fill-opacity:1;fill-rule:nonzero;stroke:none"
           transform="matrix(0.13333333,0,0,-0.13333333,0,530.76)"
           clip-path="none" /><path
           id="path10016"
           d="m 4567.53,249.781 34.57,-20.07 17.69,10.23 -34.56,20.047 -17.7,-10.207"
           style="fill:#b5aa95;fill-opacity:1;fill-rule:nonzero;stroke:none"
           transform="matrix(0.13333333,0,0,-0.13333333,0,530.76)"
           clip-path="none" /><path
           id="path10018"
           d="m 4451.04,317.809 v -3.09 l 34.56,-20.039 v 3.039 l -34.56,20.09"
           style="fill:#918779;fill-opacity:1;fill-rule:nonzero;stroke:none"
           transform="matrix(0.13333333,0,0,-0.13333333,0,530.76)"
           clip-path="none" /><path
           id="path10020"
           d="m 4485.6,297.719 v -3.039 l 17.69,10.199 v 3.07 l -17.69,-10.23"
           style="fill:#918779;fill-opacity:1;fill-rule:nonzero;stroke:none"
           transform="matrix(0.13333333,0,0,-0.13333333,0,530.76)"
           clip-path="none" /><path
           id="path10022"
           d="m 4451.04,317.809 34.56,-20.09 17.69,10.23 -34.56,20.071 -17.69,-10.211"
           style="fill:#b5aa95;fill-opacity:1;fill-rule:nonzero;stroke:none"
           transform="matrix(0.13333333,0,0,-0.13333333,0,530.76)"
           clip-path="none" /><path
           id="path10024"
           d="m 4334.51,385.82 0.03,-3.07 34.56,-20.07 v 3.07 l -34.59,20.07"
           style="fill:#918779;fill-opacity:1;fill-rule:nonzero;stroke:none"
           transform="matrix(0.13333333,0,0,-0.13333333,0,530.76)"
           clip-path="none" /><path
           id="path10026"
           d="m 4369.1,365.75 v -3.07 l 17.69,10.23 -0.01,3.039 -17.68,-10.199"
           style="fill:#918779;fill-opacity:1;fill-rule:nonzero;stroke:none"
           transform="matrix(0.13333333,0,0,-0.13333333,0,530.76)"
           clip-path="none" /><path
           id="path10028"
           d="m 4334.51,385.82 34.59,-20.07 17.68,10.199 -34.55,20.071 -17.72,-10.2"
           style="fill:#b5aa95;fill-opacity:1;fill-rule:nonzero;stroke:none"
           transform="matrix(0.13333333,0,0,-0.13333333,0,530.76)"
           clip-path="none" /><path
           id="path10030"
           d="m 4218.03,453.828 v -3.066 l 34.54,-20.09 v 3.078 l -34.54,20.078"
           style="fill:#918779;fill-opacity:1;fill-rule:nonzero;stroke:none"
           transform="matrix(0.13333333,0,0,-0.13333333,0,530.76)"
           clip-path="none" /><path
           id="path10032"
           d="m 4252.57,433.75 v -3.078 l 17.71,10.25 v 3.027 l -17.71,-10.199"
           style="fill:#918779;fill-opacity:1;fill-rule:nonzero;stroke:none"
           transform="matrix(0.13333333,0,0,-0.13333333,0,530.76)"
           clip-path="none" /><path
           id="path10034"
           d="m 4218.03,453.828 34.54,-20.078 17.71,10.199 -34.58,20.082 -17.67,-10.203"
           style="fill:#b5aa95;fill-opacity:1;fill-rule:nonzero;stroke:none"
           transform="matrix(0.13333333,0,0,-0.13333333,0,530.76)"
           clip-path="none" /><path
           id="path10036"
           d="m 4101.5,521.852 v -3.09 l 34.58,-20.082 -0.02,3.082 -34.56,20.09"
           style="fill:#918779;fill-opacity:1;fill-rule:nonzero;stroke:none"
           transform="matrix(0.13333333,0,0,-0.13333333,0,530.76)"
           clip-path="none" /><path
           id="path10038"
           d="m 4136.06,501.762 0.02,-3.082 17.68,10.23 v 3.07 l -17.7,-10.218"
           style="fill:#918779;fill-opacity:1;fill-rule:nonzero;stroke:none"
           transform="matrix(0.13333333,0,0,-0.13333333,0,530.76)"
           clip-path="none" /><path
           id="path10040"
           d="m 4101.5,521.852 34.56,-20.09 17.7,10.218 -34.54,20.079 -17.72,-10.207"
           style="fill:#b5aa95;fill-opacity:1;fill-rule:nonzero;stroke:none"
           transform="matrix(0.13333333,0,0,-0.13333333,0,530.76)"
           clip-path="none" /><path
           id="path10042"
           d="m 3985.01,589.852 v -3.071 l 34.55,-20.062 v 3.031 l -34.55,20.102"
           style="fill:#918779;fill-opacity:1;fill-rule:nonzero;stroke:none"
           transform="matrix(0.13333333,0,0,-0.13333333,0,530.76)"
           clip-path="none" /><path
           id="path10044"
           d="m 4019.56,569.75 v -3.031 l 17.71,10.203 -0.02,3.066 -17.69,-10.238"
           style="fill:#918779;fill-opacity:1;fill-rule:nonzero;stroke:none"
           transform="matrix(0.13333333,0,0,-0.13333333,0,530.76)"
           clip-path="none" /><path
           id="path10046"
           d="m 3985.01,589.852 34.55,-20.102 17.69,10.238 -34.56,20.071 -17.68,-10.207"
           style="fill:#b5aa95;fill-opacity:1;fill-rule:nonzero;stroke:none"
           transform="matrix(0.13333333,0,0,-0.13333333,0,530.76)"
           clip-path="none" /><path
           id="path10048"
           d="m 3868.5,657.859 v -3.07 l 34.57,-20.07 -0.03,3.07 -34.54,20.07"
           style="fill:#918779;fill-opacity:1;fill-rule:nonzero;stroke:none"
           transform="matrix(0.13333333,0,0,-0.13333333,0,530.76)"
           clip-path="none" /><path
           id="path10050"
           d="m 3903.04,637.789 0.03,-3.07 17.68,10.23 V 648 l -17.71,-10.211"
           style="fill:#918779;fill-opacity:1;fill-rule:nonzero;stroke:none"
           transform="matrix(0.13333333,0,0,-0.13333333,0,530.76)"
           clip-path="none" /><path
           id="path10052"
           d="m 3868.5,657.859 34.54,-20.07 17.71,10.211 -34.55,20.059 -17.7,-10.2"
           style="fill:#b5aa95;fill-opacity:1;fill-rule:nonzero;stroke:none"
           transform="matrix(0.13333333,0,0,-0.13333333,0,530.76)"
           clip-path="none" /><path
           id="path10054"
           d="m 3751.97,725.871 0.03,-3.07 34.54,-20.09 v 3.09 l -34.57,20.07"
           style="fill:#918779;fill-opacity:1;fill-rule:nonzero;stroke:none"
           transform="matrix(0.13333333,0,0,-0.13333333,0,530.76)"
           clip-path="none" /><path
           id="path10056"
           d="m 3786.54,705.801 v -3.09 l 17.72,10.25 -0.03,3.059 -17.69,-10.219"
           style="fill:#918779;fill-opacity:1;fill-rule:nonzero;stroke:none"
           transform="matrix(0.13333333,0,0,-0.13333333,0,530.76)"
           clip-path="none" /><path
           id="path10058"
           d="m 3751.97,725.871 34.57,-20.07 17.69,10.219 -34.55,20.082 -17.71,-10.231"
           style="fill:#b5aa95;fill-opacity:1;fill-rule:nonzero;stroke:none"
           transform="matrix(0.13333333,0,0,-0.13333333,0,530.76)"
           clip-path="none" /><path
           id="path10060"
           d="m 3635.48,793.859 v -3.058 l 34.55,-20.039 v 3.039 l -34.55,20.058"
           style="fill:#918779;fill-opacity:1;fill-rule:nonzero;stroke:none"
           transform="matrix(0.13333333,0,0,-0.13333333,0,530.76)"
           clip-path="none" /><path
           id="path10062"
           d="m 3670.03,773.801 v -3.039 l 17.7,10.187 v 3.082 l -17.7,-10.23"
           style="fill:#918779;fill-opacity:1;fill-rule:nonzero;stroke:none"
           transform="matrix(0.13333333,0,0,-0.13333333,0,530.76)"
           clip-path="none" /><path
           id="path10064"
           d="m 3635.48,793.859 34.55,-20.058 17.7,10.23 -34.57,20.071 -17.68,-10.243"
           style="fill:#b5aa95;fill-opacity:1;fill-rule:nonzero;stroke:none"
           transform="matrix(0.13333333,0,0,-0.13333333,0,530.76)"
           clip-path="none" /><path
           id="path10066"
           d="m 3518.97,861.871 0.01,-3.043 34.56,-20.066 -0.03,3.058 -34.54,20.051"
           style="fill:#918779;fill-opacity:1;fill-rule:nonzero;stroke:none"
           transform="matrix(0.13333333,0,0,-0.13333333,0,530.76)"
           clip-path="none" /><path
           id="path10068"
           d="m 3553.51,841.82 0.03,-3.058 17.7,10.226 -0.02,3.043 -17.71,-10.211"
           style="fill:#918779;fill-opacity:1;fill-rule:nonzero;stroke:none"
           transform="matrix(0.13333333,0,0,-0.13333333,0,530.76)"
           clip-path="none" /><path
           id="path10070"
           d="m 3518.97,861.871 34.54,-20.051 17.71,10.211 -34.55,20.078 -17.7,-10.238"
           style="fill:#b5aa95;fill-opacity:1;fill-rule:nonzero;stroke:none"
           transform="matrix(0.13333333,0,0,-0.13333333,0,530.76)"
           clip-path="none" /><path
           id="path10072"
           d="m 3402.47,929.898 v -3.066 l 34.56,-20.062 v 3.058 l -34.56,20.07"
           style="fill:#918779;fill-opacity:1;fill-rule:nonzero;stroke:none"
           transform="matrix(0.13333333,0,0,-0.13333333,0,530.76)"
           clip-path="none" /><path
           id="path10074"
           d="m 3437.03,909.828 v -3.058 l 17.7,10.218 v 3.071 l -17.7,-10.231"
           style="fill:#918779;fill-opacity:1;fill-rule:nonzero;stroke:none"
           transform="matrix(0.13333333,0,0,-0.13333333,0,530.76)"
           clip-path="none" /><path
           id="path10076"
           d="m 3402.47,929.898 34.56,-20.07 17.7,10.231 -34.57,20.05 -17.69,-10.211"
           style="fill:#b5aa95;fill-opacity:1;fill-rule:nonzero;stroke:none"
           transform="matrix(0.13333333,0,0,-0.13333333,0,530.76)"
           clip-path="none" /><path
           id="path10078"
           d="m 3285.95,997.91 v -3.07 l 34.58,-20.051 -0.03,3.051 -34.55,20.07"
           style="fill:#918779;fill-opacity:1;fill-rule:nonzero;stroke:none"
           transform="matrix(0.13333333,0,0,-0.13333333,0,530.76)"
           clip-path="none" /><path
           id="path10080"
           d="m 3320.5,977.84 0.03,-3.051 17.68,10.211 v 3.059 L 3320.5,977.84"
           style="fill:#918779;fill-opacity:1;fill-rule:nonzero;stroke:none"
           transform="matrix(0.13333333,0,0,-0.13333333,0,530.76)"
           clip-path="none" /><path
           id="path10082"
           d="m 3285.95,997.91 34.55,-20.07 17.71,10.219 -34.55,20.071 -17.71,-10.22"
           style="fill:#b5aa95;fill-opacity:1;fill-rule:nonzero;stroke:none"
           transform="matrix(0.13333333,0,0,-0.13333333,0,530.76)"
           clip-path="none" /><path
           id="path10084"
           d="m 3169.45,1065.92 v -3.05 l 34.56,-20.07 v 3.04 l -34.56,20.08"
           style="fill:#918779;fill-opacity:1;fill-rule:nonzero;stroke:none"
           transform="matrix(0.13333333,0,0,-0.13333333,0,530.76)"
           clip-path="none" /><path
           id="path10086"
           d="m 3204.01,1045.84 v -3.04 l 17.71,10.23 -0.03,3.04 -17.68,-10.23"
           style="fill:#918779;fill-opacity:1;fill-rule:nonzero;stroke:none"
           transform="matrix(0.13333333,0,0,-0.13333333,0,530.76)"
           clip-path="none" /><path
           id="path10088"
           d="m 3169.45,1065.92 34.56,-20.08 17.68,10.23 -34.55,20.07 -17.69,-10.22"
           style="fill:#b5aa95;fill-opacity:1;fill-rule:nonzero;stroke:none"
           transform="matrix(0.13333333,0,0,-0.13333333,0,530.76)"
           clip-path="none" /><path
           id="path10090"
           d="m 3052.94,1133.94 v -3.06 l 34.57,-20.08 -0.02,3.06 -34.55,20.08"
           style="fill:#918779;fill-opacity:1;fill-rule:nonzero;stroke:none"
           transform="matrix(0.13333333,0,0,-0.13333333,0,530.76)"
           clip-path="none" /><path
           id="path10092"
           d="m 3087.49,1113.86 0.02,-3.06 17.69,10.23 v 3.04 l -17.71,-10.21"
           style="fill:#918779;fill-opacity:1;fill-rule:nonzero;stroke:none"
           transform="matrix(0.13333333,0,0,-0.13333333,0,530.76)"
           clip-path="none" /><path
           id="path10094"
           d="m 3052.94,1133.94 34.55,-20.08 17.71,10.21 -34.56,20.08 -17.7,-10.21"
           style="fill:#b5aa95;fill-opacity:1;fill-rule:nonzero;stroke:none"
           transform="matrix(0.13333333,0,0,-0.13333333,0,530.76)"
           clip-path="none" /><path
           id="path10096"
           d="m 2936.43,1201.94 0.02,-3.07 34.55,-20.06 v 3.06 l -34.57,20.07"
           style="fill:#918779;fill-opacity:1;fill-rule:nonzero;stroke:none"
           transform="matrix(0.13333333,0,0,-0.13333333,0,530.76)"
           clip-path="none" /><path
           id="path10098"
           d="m 2971,1181.87 v -3.06 l 17.7,10.22 -0.01,3.07 -17.69,-10.23"
           style="fill:#918779;fill-opacity:1;fill-rule:nonzero;stroke:none"
           transform="matrix(0.13333333,0,0,-0.13333333,0,530.76)"
           clip-path="none" /><path
           id="path10100"
           d="m 2936.43,1201.94 34.57,-20.07 17.69,10.23 -34.56,20.09 -17.7,-10.25"
           style="fill:#b5aa95;fill-opacity:1;fill-rule:nonzero;stroke:none"
           transform="matrix(0.13333333,0,0,-0.13333333,0,530.76)"
           clip-path="none" /><path
           id="path10102"
           d="M 5088.51,288.84 V 140.441 l -2199.15,1263.749 -61.24,35.2 -1.39,498.39 62.63,-36.16 L 4967.42,702 5088.51,288.84"
           style="fill:#b4b096;fill-opacity:1;fill-rule:nonzero;stroke:none"
           transform="matrix(0.13333333,0,0,-0.13333333,0,530.76)"
           clip-path="none" /><path
           id="path10104"
           d="m 5078.31,928.27 -2134.09,1231.5 345.87,199.7 2134.11,-1231.5 -345.89,-199.7"
           style="fill:#f4f3ea;fill-opacity:1;fill-rule:nonzero;stroke:none"
           transform="matrix(0.13333333,0,0,-0.13333333,0,530.76)"
           clip-path="none" /><path
           id="path10106"
           d="m 5451.94,1140.05 c 1.76,0.52 3.51,1.06 5.24,1.47 1.63,0.42 3.22,0.74 4.81,1.05 2.11,0.36 4.19,0.69 6.25,0.96 1.19,0.12 2.38,0.27 3.54,0.34 2.58,0.19 5.1,0.25 7.58,0.17 l 1.72,-0.04 c 2.98,-0.15 5.88,-0.55 8.69,-1.09 l 2.1,-0.48 c 2.21,-0.49 4.38,-1.13 6.47,-1.88 l 1.99,-0.69 c 2.69,-1.04 5.29,-2.24 7.74,-3.68 l -0.11,0.06 0.11,-0.06 -2134.07,1231.51 -0.65,0.35 c -1.91,1.08 -3.9,2.06 -5.93,2.91 l -1.16,0.39 -2.01,0.71 c -1.02,0.39 -2,0.78 -3.05,1.09 -1.12,0.32 -2.27,0.52 -3.42,0.79 l -2.07,0.48 -1.14,0.25 c -2.32,0.42 -4.69,0.68 -7.12,0.82 h -0.47 l -1.72,0.06 c -1.86,0.02 -3.7,0.11 -5.61,0.02 l -1.95,-0.18 c -1.17,-0.08 -2.35,-0.23 -3.54,-0.36 -1.1,-0.14 -2.18,-0.17 -3.31,-0.33 -0.96,-0.18 -1.97,-0.44 -2.92,-0.62 -1.61,-0.33 -3.21,-0.66 -4.83,-1.05 l -2.61,-0.55 -2.64,-0.9 c -2.73,-0.84 -5.49,-1.82 -8.3,-2.87 -0.99,-0.38 -1.94,-0.6 -2.95,-1.01 l -1.68,-0.86 c -4.87,-2.1 -9.79,-4.46 -14.83,-7.36 L 5424.2,1127.97 c 5.02,2.91 9.94,5.28 14.81,7.38 1.55,0.66 3.08,1.27 4.6,1.85 2.81,1.09 5.57,2.06 8.33,2.85"
           style="fill:#f4f3ea;fill-opacity:1;fill-rule:nonzero;stroke:none"
           transform="matrix(0.13333333,0,0,-0.13333333,0,530.76)"
           clip-path="none" /><path
           id="path10108"
           d="m 5078.26,928.27 c -3.72,-2.239 -7.48,-4.579 -11.22,-7.098 -3.74,-2.461 -7.33,-5.223 -10.94,-8.16 -1.38,-1.082 -2.64,-2.211 -4.02,-3.313 -3.6,-2.918 -7.21,-6.097 -10.66,-9.551 -3.46,-3.347 -6.8,-6.808 -9.97,-10.41 -0.98,-0.957 -1.95,-1.929 -2.92,-3.058 -1.11,-1.239 -2.23,-2.481 -3.34,-3.7 -3.73,-4.468 -7.48,-9.031 -11.07,-13.742 -3.32,-4.148 -6.24,-8.449 -9.14,-12.886 -0.69,-1.114 -1.54,-2.223 -2.23,-3.321 -2.64,-4.019 -5.13,-8.031 -7.48,-12.199 l -1.1,-1.973 c -1.95,-3.589 -3.88,-7.019 -5.68,-10.609 -0.7,-1.141 -1.26,-2.371 -1.81,-3.621 -1.94,-3.731 -3.74,-7.609 -5.4,-11.52 l -0.42,-0.679 c -4.29,-9.539 -7.91,-19.391 -10.81,-29.231 l -0.69,-2.668 c -0.82,-2.761 -1.51,-5.519 -2.35,-8.293 -0.42,-2.097 -0.97,-4 -1.38,-6.078 -0.42,-1.101 -0.57,-2.238 -0.7,-3.199 -0.13,-1.121 -0.27,-2.223 -0.56,-3.199 -0.69,-3.203 -1.24,-6.371 -1.65,-9.41 -0.97,-6.09 -1.53,-12.18 -1.81,-18.153 -0.13,-2.488 -0.13,-5.109 -0.13,-7.597 l -2071.42,1195.288 -62.63,36.18 c 0,4.32 0.13,8.73 0.41,13.03 0.14,1.38 0.29,2.76 0.41,4.14 0.29,1.97 0.41,4.04 0.69,5.95 l 0.42,2.65 c 0.43,3.05 0.99,6.22 1.53,9.43 0.28,1.39 0.56,2.9 0.85,4.29 l 0.53,2.07 c 0.42,2.1 0.97,4.02 1.39,6.09 0.57,1.82 0.84,3.62 1.39,5.42 0.28,0.97 0.56,1.93 0.84,2.9 0.54,1.69 0.95,3.32 1.51,5 0.44,1.39 0.82,2.78 1.25,4.15 0.69,1.66 1.26,3.47 1.95,5.26 0.42,1.24 0.83,2.49 1.38,3.9 l 0.7,1.94 c 1.38,3.59 2.76,6.91 4.28,10.51 v 0.13 l 0.28,0.31 0.56,1.49 c 1.23,2.8 2.62,5.57 3.88,8.35 0.55,1.09 1.11,2.05 1.53,3.18 0.69,1.08 1.23,2.35 1.8,3.45 0.69,1.11 1.24,2.36 1.8,3.47 1.24,2.35 2.63,4.7 4.01,7.08 l 1.1,2.18 0.43,0.69 c 1.94,3.35 4.01,6.67 6.08,9.98 l 0.97,1.39 c 0.72,1.13 1.53,2.22 2.23,3.35 1.26,1.79 2.36,3.59 3.59,5.39 0.69,1.1 1.54,2.07 2.23,3.04 1.11,1.55 2.22,3.07 3.33,4.46 0.82,1.1 1.51,2.21 2.36,3.18 0.94,1.23 1.94,2.34 2.9,3.59 1.53,1.94 3.04,3.73 4.58,5.53 l 2.07,2.52 c 0.83,0.97 1.67,1.79 2.49,2.62 2.49,2.91 5.13,5.67 7.89,8.43 l 2.5,2.64 2.49,2.38 c 1.26,1.23 2.64,2.48 3.9,3.75 2.2,1.92 4.41,3.85 6.64,5.81 1.38,1.11 2.76,2.22 4.15,3.32 2.36,1.94 4.86,3.74 7.35,5.53 1.23,0.83 2.36,1.8 3.62,2.63 3.72,2.52 7.46,4.86 11.2,7.1 L 5078.26,928.27"
           style="fill:#e0dcc6;fill-opacity:1;fill-rule:nonzero;stroke:none"
           transform="matrix(0.13333333,0,0,-0.13333333,0,530.76)"
           clip-path="none" /><path
           id="path10110"
           d="M 5542.42,1060.44 4960.78,724.602 c -0.29,74.937 52.37,166.117 117.48,203.668 l 345.98,199.64 c 65.14,37.69 118.06,7.5 118.18,-67.47"
           style="fill:#bdbcb5;fill-opacity:1;fill-rule:nonzero;stroke:none"
           transform="matrix(0.13333333,0,0,-0.13333333,0,530.76)"
           clip-path="none" /><path
           id="path10112"
           d="m 5670.33,476.289 c 0.14,-64.129 -38.39,-140.23 -90.47,-184.269 -1.82,-1.661 -3.61,-3.18 -5.41,-4.559 -6.94,-5.57 -14.28,-10.57 -21.62,-14.832 l -285.71,-164.91 -6.1,-3.438 -54.16,-31.3396 C 5141.73,35.4102 5088.8,65.6094 5088.51,140.441 V 288.84 l 581.39,336.531 0.43,-149.082"
           style="fill:#c2bea8;fill-opacity:1;fill-rule:nonzero;stroke:none"
           transform="matrix(0.13333333,0,0,-0.13333333,0,530.76)"
           clip-path="none" /><path
           id="path10114"
           d="m 4967.42,702 -494.91,285.699 -366.89,211.841 -356.66,205.9 -366.9,211.72 -492.7,284.46 -62.63,36.16 v 18.29 l 62.63,-36.18 492.7,-284.29 366.9,-211.72 356.66,-205.76 366.89,-211.69 488.27,-281.828 6.64,-22.602"
           style="fill:#a09787;fill-opacity:1;fill-rule:nonzero;stroke:none"
           transform="matrix(0.13333333,0,0,-0.13333333,0,530.76)"
           clip-path="none" /><path
           id="path10116"
           d="M 5542.42,1060.44 4960.78,724.602 c -0.29,74.937 52.37,166.117 117.48,203.668 l 345.98,199.64 c 65.14,37.69 118.06,7.5 118.18,-67.47"
           style="fill:#c2bea8;fill-opacity:1;fill-rule:nonzero;stroke:none"
           transform="matrix(0.13333333,0,0,-0.13333333,0,530.76)"
           clip-path="none" /><path
           id="path10118"
           d="M 5669.9,625.371 5088.51,288.84 4960.78,724.602 5542.42,1060.44 5669.9,625.371"
           style="fill:#e0dcc6;fill-opacity:1;fill-rule:nonzero;stroke:none"
           transform="matrix(0.13333333,0,0,-0.13333333,0,530.76)"
           clip-path="none" /><path
           id="path10120"
           d="m 5114.01,397.551 c -6.39,0 -15.63,2.238 -23.47,12.89 -3.7,5 -6.07,10.789 -7.4,14.758 l -73.87,257.582 c -8.26,38.391 16.73,52.758 31.64,61.367 l 444.99,256.942 c 4.27,2.35 7.71,3.67 11.06,4.37 1.8,0.36 3.83,0.57 5.8,0.57 8.11,0 22.79,-3.69 30.11,-28.55 l 74.13,-257.859 0.15,-0.91 c 4.97,-33.379 -11.63,-45.063 -32.62,-59.832 L 5130.1,402.219 c -5.36,-3.09 -10.77,-4.668 -16.09,-4.668"
           style="fill:#353435;fill-opacity:1;fill-rule:nonzero;stroke:none"
           transform="matrix(0.13333333,0,0,-0.13333333,0,530.76)"
           clip-path="none" /><path
           id="path10122"
           d="M 5566.54,670.262 5123.18,414.23 c -9.87,-5.71 -16.77,-1.98 -21.49,4.418 -2.34,3.184 -4.15,7.204 -5.4,10.954 l -73.71,257 c -6.1,28.539 11.92,37.828 26.73,46.429 l 443.53,256.02 c 2.49,1.398 4.72,2.379 6.79,2.781 10.38,2.238 16.48,-6.512 19.94,-18.262 l 73.85,-256.879 c 3.61,-24.121 -4.98,-31.062 -26.88,-46.429"
           style="fill:#1b1819;fill-opacity:1;fill-rule:nonzero;stroke:none"
           transform="matrix(0.13333333,0,0,-0.13333333,0,530.76)"
           clip-path="none" /><path
           id="path10124"
           d="m 5575.93,699.949 c -3.89,-8.051 -12.07,-13.988 -24.4,-22.73 L 5108.02,421.172 c -2.23,-1.231 -4.3,-2.082 -6.37,-2.461 -2.37,3.168 -4.17,7.187 -5.41,10.918 l -11.23,39.082 -62.47,217.91 c -6.1,28.57 11.89,37.867 26.73,46.438 l 443.53,256.05 c 2.49,1.403 4.71,2.36 6.78,2.801 2.09,-3.039 3.73,-7.082 4.99,-11.398 l 73.71,-256.883 c 1.66,-10.367 0.96,-17.731 -2.35,-23.68"
           style="fill:#bdbcb5;fill-opacity:1;fill-rule:nonzero;stroke:none"
           transform="matrix(0.13333333,0,0,-0.13333333,0,530.76)"
           clip-path="none" /><path
           id="path10126"
           d="M 5367.7,807.871 5549.9148,677.22979 5057.07,566.488 5022.58,686.621 c -6.1,28.551 11.89,37.809 26.73,46.41 l 180.25,104.039 75.81,43.809 41.84,24.109 10.94,6.364 9.55,-103.481"
           style="fill:#70665a;fill-opacity:1;fill-rule:nonzero;stroke:none"
           transform="matrix(0.13333333,0,0,-0.13333333,0,530.76)"
           clip-path="none"
           sodipodi:nodetypes="cccccccccc" /><path
           id="path10128"
           d="m 5575.97,699.93 c -3.9,-8.051 -12.07,-14 -24.39,-22.711 L 5309.8024,669.93568 5305.37,707.25 v 173.629 l 41.84,24.109 42.67,24.672 40.06,23.11 62.9,36.32 c 2.49,1.379 4.72,2.379 6.79,2.781 2.07,-3.062 3.72,-7.07 4.98,-11.383 l 73.71,-256.886 c 1.66,-10.403 0.97,-17.723 -2.35,-23.672"
           style="fill:#70665a;fill-opacity:1;fill-rule:nonzero;stroke:none"
           transform="matrix(0.13333333,0,0,-0.13333333,0,530.76)"
           clip-path="none"
           sodipodi:nodetypes="ccccccccccccc" /><path
           id="path10130"
           d="m 5101.69,418.648 c -0.05,0.063 -0.09,0.122 -0.14,0.18 0.02,-0.019 0.04,-0.047 0.06,-0.078 0.03,-0.031 0.05,-0.07 0.08,-0.102 v 0 0"
           style="fill:#669ea2;fill-opacity:1;fill-rule:nonzero;stroke:none"
           transform="matrix(0.13333333,0,0,-0.13333333,0,530.76)"
           clip-path="none" /><path
           id="path10132"
           d="m 5101.69,418.648 v 0 c -0.03,0.032 -0.05,0.071 -0.08,0.102 0.01,-0.012 0.03,-0.031 0.04,-0.039 2.07,0.379 4.14,1.23 6.37,2.461 l 138.3,79.84 7.18,4.136 42.84,24.743 -0.02,-0.082 17.02,9.832 v -0.051 l -16.97,-9.801 -42.83,-24.687 -117.49,-67.762 -27.99,-16.211 c -2.23,-1.207 -4.3,-2.07 -6.37,-2.481"
           style="fill:#5b9396;fill-opacity:1;fill-rule:nonzero;stroke:none"
           transform="matrix(0.13333333,0,0,-0.13333333,0,530.76)"
           clip-path="none" /><path
           id="path10146"
           d="m 5229.52,837.129 v 0 l 22.22,12.82 -22.22,-12.828"
           style="fill:#9ba3a3;fill-opacity:1;fill-rule:nonzero;stroke:none"
           transform="matrix(0.13333333,0,0,-0.13333333,0,530.76)"
           clip-path="none" /><path
           id="path10148"
           d="m 5229.5,837.031 0.02,0.098 22.22,12.82 61.6,35.539 v -0.019 l -7.97,-4.59 -75.81,-43.809 -0.06,-0.039"
           style="fill:#d1d9d7;fill-opacity:1;fill-rule:nonzero;stroke:none"
           transform="matrix(0.13333333,0,0,-0.13333333,0,530.76)"
           clip-path="none" /><path
           id="path10150"
           d="m 5246.32,501.012 7.18,4.148 v -0.012 l -7.18,-4.136"
           style="fill:#aac9ca;fill-opacity:1;fill-rule:nonzero;stroke:none"
           transform="matrix(0.13333333,0,0,-0.13333333,0,530.76)"
           clip-path="none" /><path
           id="path10160"
           d="m 5296.32,529.809 0.02,0.082 17,9.808 v -0.058 l -17.02,-9.832"
           style="fill:#aac9ca;fill-opacity:1;fill-rule:nonzero;stroke:none"
           transform="matrix(0.13333333,0,0,-0.13333333,0,530.76)"
           clip-path="none" /><path
           id="path10172"
           d="m 5574.45,287.461 c -6.94,-5.57 -14.27,-10.57 -21.62,-14.832 l -285.71,-164.91 21.47,68.312 c 4.58,14.539 14.83,28.289 26.19,34.789 l 212.84,122.899 0.69,0.41 c 11.09,5.949 21.06,4.152 25.49,-4.969 l 20.65,-41.699"
           style="fill:#262626;fill-opacity:1;fill-rule:nonzero;stroke:none"
           transform="matrix(0.13333333,0,0,-0.13333333,0,530.76)"
           clip-path="none" /><path
           id="path10174"
           d="m 4979.97,272.5 c 0,-2.781 -0.7,-4.98 -1.82,-6.359 -2.09,-2.641 -5.82,-3.051 -10.12,-0.571 L 2869.88,1476.83 c -6.64,3.87 -12.05,13.17 -12.05,20.8 0,4.85 2.08,7.75 5.26,8.44 1.95,0.41 4.3,0 6.79,-1.53 L 4968.03,293.289 c 6.65,-3.879 11.94,-13.168 11.94,-20.789"
           style="fill:#e0dcc6;fill-opacity:1;fill-rule:nonzero;stroke:none"
           transform="matrix(0.13333333,0,0,-0.13333333,0,530.76)"
           clip-path="none" /><path
           id="path10176"
           d="m 4979.97,272.5 c 0,-2.781 -0.7,-4.98 -1.82,-6.359 -1.79,-0.282 -4.16,0.129 -6.67,1.507 L 2873.34,1479.05 c -6.65,3.9 -12.05,13.16 -12.05,20.79 0,2.64 0.69,4.7 1.8,6.23 1.95,0.41 4.3,0 6.79,-1.53 L 4968.03,293.289 c 6.65,-3.879 11.94,-13.168 11.94,-20.789"
           style="fill:#a09787;fill-opacity:1;fill-rule:nonzero;stroke:none"
           transform="matrix(0.13333333,0,0,-0.13333333,0,530.76)"
           clip-path="none" /><path
           id="path10178"
           d="m 4979.97,327.941 c 0,-2.769 -0.7,-5 -1.82,-6.382 -2.09,-2.637 -5.82,-3.047 -10.12,-0.571 L 2869.88,1532.25 c -6.64,3.87 -12.05,13.17 -12.05,20.8 0,4.85 2.08,7.75 5.26,8.44 1.95,0.41 4.3,0 6.79,-1.53 L 4968.03,348.711 c 6.65,-3.902 11.94,-13.172 11.94,-20.77"
           style="fill:#e0dcc6;fill-opacity:1;fill-rule:nonzero;stroke:none"
           transform="matrix(0.13333333,0,0,-0.13333333,0,530.76)"
           clip-path="none" /><path
           id="path10180"
           d="m 4979.97,327.941 c 0,-2.769 -0.7,-5 -1.82,-6.382 -1.79,-0.278 -4.16,0.132 -6.67,1.511 l -2098.14,1211.4 c -6.65,3.9 -12.05,13.16 -12.05,20.77 0,2.66 0.69,4.72 1.8,6.25 1.95,0.41 4.3,0 6.79,-1.53 L 4968.03,348.711 c 6.65,-3.902 11.94,-13.172 11.94,-20.77"
           style="fill:#a09787;fill-opacity:1;fill-rule:nonzero;stroke:none"
           transform="matrix(0.13333333,0,0,-0.13333333,0,530.76)"
           clip-path="none" /><path
           id="path10186"
           d="m 5057.28,1129.28 c 1.29,0.77 2.18,1.71 2.52,2.59 0.68,1.71 -0.13,3.62 -2.5,4.95 l -359.81,209.62 c -3.69,2.1 -9.56,2.14 -13.18,0.02 -2.31,-1.31 -3.12,-3.08 -2.56,-4.8 0.33,-1.03 1.17,-2.01 2.57,-2.82 l 359.82,-209.6 c 3.66,-2.1 9.51,-2.04 13.14,0.04"
           style="fill:#c2bea8;fill-opacity:1;fill-rule:nonzero;stroke:none"
           transform="matrix(0.13333333,0,0,-0.13333333,0,530.76)"
           clip-path="none" /><path
           id="path10188"
           d="m 5057.28,1129.28 c 1.29,0.77 2.18,1.71 2.52,2.59 -0.37,0.94 -1.21,1.94 -2.55,2.77 l -359.88,209.57 c -3.66,2.1 -9.55,2.1 -13.18,0.02 -1.23,-0.75 -2.03,-1.6 -2.44,-2.57 0.33,-1.03 1.17,-2.01 2.57,-2.82 l 359.82,-209.6 c 3.66,-2.1 9.51,-2.04 13.14,0.04"
           style="fill:#e0dcc6;fill-opacity:1;fill-rule:nonzero;stroke:none"
           transform="matrix(0.13333333,0,0,-0.13333333,0,530.76)"
           clip-path="none" /><path
           id="path10190"
           d="m 5086.13,1147.05 c 1.32,0.74 2.18,1.69 2.53,2.6 0.7,1.71 -0.15,3.59 -2.51,4.96 l -359.79,209.65 c -3.67,2.07 -9.56,2.07 -13.18,0 -2.31,-1.33 -3.13,-3.13 -2.58,-4.83 0.32,-1 1.2,-2.01 2.59,-2.8 L 5073.01,1147 c 3.65,-2.07 9.51,-2.05 13.12,0.05"
           style="fill:#c2bea8;fill-opacity:1;fill-rule:nonzero;stroke:none"
           transform="matrix(0.13333333,0,0,-0.13333333,0,530.76)"
           clip-path="none" /><path
           id="path10192"
           d="m 5086.13,1147.05 c 1.32,0.74 2.18,1.69 2.53,2.6 -0.35,0.94 -1.19,1.94 -2.53,2.74 l -359.88,209.6 c -3.67,2.06 -9.56,2.1 -13.18,0 -1.26,-0.7 -2.06,-1.61 -2.47,-2.56 0.32,-1 1.2,-2.01 2.59,-2.8 L 5073.01,1147 c 3.65,-2.07 9.51,-2.05 13.12,0.05"
           style="fill:#e0dcc6;fill-opacity:1;fill-rule:nonzero;stroke:none"
           transform="matrix(0.13333333,0,0,-0.13333333,0,530.76)"
           clip-path="none" /><path
           id="path10194"
           d="m 5117.55,1164.81 c 1.32,0.77 2.18,1.71 2.54,2.6 0.67,1.72 -0.15,3.61 -2.51,4.97 L 4757.76,1382 c -3.66,2.12 -9.56,2.12 -13.18,0.04 -2.31,-1.33 -3.1,-3.13 -2.56,-4.84 0.33,-1.03 1.18,-2.02 2.59,-2.8 l 359.8,-209.63 c 3.68,-2.1 9.52,-2.04 13.14,0.04"
           style="fill:#c2bea8;fill-opacity:1;fill-rule:nonzero;stroke:none"
           clip-path="none"
           transform="matrix(0.13333333,0,0,-0.13333333,0,530.76)" /><path
           id="path10196"
           d="m 5117.55,1164.81 c 1.32,0.77 2.18,1.71 2.54,2.6 -0.37,0.94 -1.22,1.96 -2.56,2.76 l -359.87,209.57 c -3.68,2.1 -9.55,2.13 -13.19,0.06 -1.23,-0.75 -2.03,-1.64 -2.45,-2.6 0.33,-1.03 1.18,-2.02 2.59,-2.8 l 359.8,-209.63 c 3.68,-2.1 9.52,-2.04 13.14,0.04"
           style="fill:#e0dcc6;fill-opacity:1;fill-rule:nonzero;stroke:none"
           clip-path="none"
           transform="matrix(0.13333333,0,0,-0.13333333,0,530.76)" /><path
           id="path10198"
           d="m 5147.33,1182.59 c 1.32,0.78 2.18,1.7 2.53,2.63 0.67,1.68 -0.15,3.57 -2.51,4.94 l -359.83,209.6 c -3.66,2.1 -9.55,2.13 -13.14,0.06 -2.31,-1.33 -3.13,-3.15 -2.59,-4.81 0.35,-1.06 1.17,-2.05 2.59,-2.82 l 359.82,-209.63 c 3.66,-2.09 9.5,-2.05 13.13,0.03"
           style="fill:#c2bea8;fill-opacity:1;fill-rule:nonzero;stroke:none"
           transform="matrix(0.13333333,0,0,-0.13333333,0,530.76)"
           clip-path="none" /><path
           id="path10200"
           d="m 5147.33,1182.59 c 1.32,0.78 2.18,1.7 2.53,2.63 -0.35,0.93 -1.21,1.94 -2.56,2.73 l -359.87,209.58 c -3.67,2.07 -9.55,2.12 -13.16,0.02 -1.26,-0.73 -2.05,-1.63 -2.48,-2.54 0.35,-1.06 1.17,-2.05 2.59,-2.82 l 359.82,-209.63 c 3.66,-2.09 9.5,-2.05 13.13,0.03"
           style="fill:#e0dcc6;fill-opacity:1;fill-rule:nonzero;stroke:none"
           transform="matrix(0.13333333,0,0,-0.13333333,0,530.76)"
           clip-path="none" /><path
           id="path10206"
           d="m 3382.06,1617.21 1.45,-496.57 v -0.48 l 179.81,-103.17 7,-4.1 180.06,-103.402 -1.43,496.082 -180.08,103.65 v 0.25 l -6.75,3.84 -180.06,103.9"
           style="fill:#457b9d;fill-opacity:0.59757739;fill-rule:nonzero;stroke:none"
           transform="matrix(0.13333333,0,0,-0.13333333,0,530.76)"
           clip-path="none" /><path
           id="path10208"
           d="m 3562.12,1513.31 1.21,-496.32 6.99,-4.1 -1.45,496.33"
           style="fill:#3a6784;fill-opacity:0.59892327;fill-rule:nonzero;stroke:none"
           transform="matrix(0.13333333,0,0,-0.13333333,0,530.76)"
           clip-path="none"
           sodipodi:nodetypes="cccc" /><path
           id="path10210"
           d="m 4105.7,1199.46 1.18,-493.89 v -0.961 l 175.99,-101.25 6.98,-3.871 183.92,-105.816 v 0.726 l -1.19,493.204 -182.97,105.548 -6.99,4.12 -176.92,102.19"
           style="fill:#457b9d;fill-opacity:0.59757739;fill-rule:nonzero;stroke:none"
           transform="matrix(0.13333333,0,0,-0.13333333,0,530.76)"
           clip-path="none" /><path
           id="path10212"
           d="m 4282.62,1097.27 0.25,-493.911 6.98,-3.871 -0.24,493.662"
           style="fill:#3a6784;fill-opacity:0.59892327;fill-rule:nonzero;stroke:none"
           transform="matrix(0.13333333,0,0,-0.13333333,0,530.76)"
           clip-path="none"
           sodipodi:nodetypes="cccc" /><path
           id="path10216"
           d="m 2828.12,1439.31 c 0.25,-18.55 3.37,-34.21 9.15,-46.99 6.05,-12.78 14.71,-22.42 25.32,-28.7 l 26.76,-15.18 1609.25,-924.67 9.4,-5.54 491.5,-282.519 123.42,-70.8516 c -21.2,12.2812 -34.22,38.3316 -34.46,75.6606 l -2199.11,1263.61 -61.23,35.18"
           style="fill:#333333;fill-opacity:1;fill-rule:nonzero;stroke:none"
           transform="matrix(0.13333333,0,0,-0.13333333,0,530.76)"
           clip-path="none" /><path
           id="path10218"
           d="m 4229.76,843.73 -62.79,36.258 c -17.9,10.321 -32.41,35.453 -32.41,56.141 v 195.651 c 0,20.67 14.51,29.04 32.41,18.7 l 62.79,-36.25 c 17.89,-10.35 32.41,-35.45 32.41,-56.15 V 862.422 c 0,-20.652 -14.52,-29.024 -32.41,-18.692"
           style="fill:#353435;fill-opacity:1;fill-rule:nonzero;stroke:none"
           transform="matrix(0.13333333,0,0,-0.13333333,0,530.76)"
           clip-path="none" /><path
           id="path10222"
           d="m 3506.27,1261.43 -62.8,36.26 c -17.89,10.32 -32.41,35.44 -32.41,56.14 v 195.66 c 0,20.67 14.52,29.06 32.41,18.69 l 62.8,-36.23 c 17.9,-10.37 32.41,-35.48 32.41,-56.17 v -195.65 c 0,-20.67 -14.51,-29.04 -32.41,-18.7"
           style="fill:#353435;fill-opacity:1;fill-rule:nonzero;stroke:none"
           transform="matrix(0.13333333,0,0,-0.13333333,0,530.76)"
           clip-path="none" /><path
           id="path10224"
           d="m 3687.12,1157.01 -62.78,36.26 c -17.89,10.3 -32.42,35.45 -32.42,56.13 v 195.67 c 0,20.68 14.53,29.06 32.42,18.69 l 62.78,-36.22 c 17.92,-10.38 32.42,-35.49 32.42,-56.18 V 1175.7 c 0,-20.65 -14.5,-29.03 -32.42,-18.69"
           style="fill:#353435;fill-opacity:1;fill-rule:nonzero;stroke:none"
           transform="matrix(0.13333333,0,0,-0.13333333,0,530.76)"
           clip-path="none" /><path
           id="path10226"
           d="m 3772.8,1340.63 v -195.64 c 0,-20.7 14.53,-45.84 32.43,-56.15 l 243.65,-140.692 c 17.9,-10.339 32.41,-1.949 32.41,18.704 v 195.668 c 0,20.68 -14.51,45.79 -32.41,56.12 l -243.65,140.69 c -17.9,10.35 -32.43,1.96 -32.43,-18.7"
           style="fill:#353435;fill-opacity:1;fill-rule:nonzero;stroke:none"
           transform="matrix(0.13333333,0,0,-0.13333333,0,530.76)"
           clip-path="none" /><path
           id="path10228"
           d="m 4410.62,739.309 -62.79,36.25 c -17.9,10.32 -32.41,35.453 -32.41,56.152 v 195.619 c 0,20.7 14.51,29.06 32.41,18.73 l 62.79,-36.26 c 17.92,-10.32 32.41,-35.448 32.41,-56.14 V 758.012 c 0,-20.672 -14.49,-29.051 -32.41,-18.703"
           style="fill:#353435;fill-opacity:1;fill-rule:nonzero;stroke:none"
           transform="matrix(0.13333333,0,0,-0.13333333,0,530.76)"
           clip-path="none" /><path
           id="path10230"
           d="M 4496.29,922.91 V 727.27 c 0,-20.68 14.51,-45.821 32.42,-56.141 l 243.65,-140.668 c 17.92,-10.34 32.41,-1.961 32.41,18.699 v 195.649 c 0,20.66 -14.49,45.832 -32.41,56.14 l -243.65,140.692 c -17.91,10.328 -32.42,1.949 -32.42,-18.731"
           style="fill:#353435;fill-opacity:1;fill-rule:nonzero;stroke:none"
           transform="matrix(0.13333333,0,0,-0.13333333,0,530.76)"
           clip-path="none" /><path
           id="path10232"
           d="m 4953.25,426.031 -62.8,36.258 c -17.9,10.301 -32.42,35.449 -32.42,56.109 v 195.661 c 0,20.679 14.52,29.062 32.42,18.722 l 13.35,-7.722 c 13.14,-7.571 25.1,-23.309 30.6,-40.258 l 48.26,-148.653 c 1.97,-6.046 3,-11.957 3,-17.386 V 444.73 c 0,-20.66 -14.52,-29.039 -32.41,-18.699"
           style="fill:#353435;fill-opacity:1;fill-rule:nonzero;stroke:none"
           transform="matrix(0.13333333,0,0,-0.13333333,0,530.76)"
           clip-path="none" /><path
           id="path10234"
           d="m 3526.57,1482.75 v -195.62 c 0,-4.85 -1.24,-8.58 -3.32,-10.95 -3.59,-4.3 -9.97,-4.98 -17.05,-0.83 l -62.74,36.31 c -11.23,6.35 -20.4,22.28 -20.4,35.2 v 195.63 c 0,8.74 4.02,13.86 10.12,14.38 3.07,0.41 6.53,-0.38 10.28,-2.59 l 62.74,-36.32 c 11.24,-6.39 20.37,-22.18 20.37,-35.21"
           style="fill:#3c5b60;fill-opacity:1;fill-rule:nonzero;stroke:none"
           transform="matrix(0.13333333,0,0,-0.13333333,0,530.76)"
           clip-path="none" /><path
           id="path10236"
           d="m 3707.53,1378.27 v -195.63 c 0,-4.84 -1.26,-8.59 -3.46,-10.92 -3.74,-4.31 -9.84,-4.84 -16.9,-0.85 l -62.76,36.3 c -11.25,6.51 -20.38,22.3 -20.38,35.35 v 195.62 c 0,8.62 4.03,13.72 10.13,14.28 3.02,0.41 6.48,-0.42 10.25,-2.64 l 62.76,-36.16 c 11.21,-6.49 20.36,-22.32 20.36,-35.35"
           style="fill:#3c5b60;fill-opacity:1;fill-rule:nonzero;stroke:none"
           transform="matrix(0.13333333,0,0,-0.13333333,0,530.76)"
           clip-path="none" /><path
           id="path10238"
           d="M 4069.3,1169.48 V 973.852 c 0,-4.704 -1.23,-8.461 -3.18,-10.954 -3.75,-4.289 -9.98,-4.976 -17.18,-0.828 l -243.71,140.65 c -11.25,6.5 -20.37,22.29 -20.37,35.32 v 195.62 c 0,8.75 4.14,13.99 10.38,14.41 2.92,0.29 6.38,-0.55 9.99,-2.59 l 243.71,-140.81 c 11.22,-6.37 20.36,-22.31 20.36,-35.19"
           style="fill:#3c5b60;fill-opacity:1;fill-rule:nonzero;stroke:none"
           transform="matrix(0.13333333,0,0,-0.13333333,0,530.76)"
           clip-path="none" /><path
           id="path10240"
           d="M 4430.94,960.68 V 765.059 c 0,-4.727 -1.25,-8.5 -3.19,-10.957 -3.75,-4.321 -9.98,-4.981 -17.17,-0.832 l -62.78,36.14 c -11.23,6.52 -20.37,22.328 -20.37,35.352 v 195.658 c 0,8.71 4.15,13.99 10.4,14.37 2.92,0.29 6.38,-0.54 9.97,-2.61 l 62.78,-36.309 c 11.21,-6.512 20.36,-22.301 20.36,-35.191"
           style="fill:#3c5b60;fill-opacity:1;fill-rule:nonzero;stroke:none"
           transform="matrix(0.13333333,0,0,-0.13333333,0,530.76)"
           clip-path="none" /><path
           id="path10242"
           d="M 4792.71,751.719 V 556.09 c 0,-4.84 -1.25,-8.57 -3.45,-10.93 -3.76,-4.301 -9.86,-4.859 -16.91,-0.828 l -243.6,140.758 c -11.22,6.371 -20.38,22.301 -20.38,35.191 v 195.66 c 0,8.848 4.19,14 10.28,14.411 3.04,0.418 6.36,-0.59 10.1,-2.633 l 243.6,-140.617 c 11.2,-6.563 20.36,-22.364 20.36,-35.383"
           style="fill:#3c5b60;fill-opacity:1;fill-rule:nonzero;stroke:none"
           transform="matrix(0.13333333,0,0,-0.13333333,0,530.76)"
           clip-path="none" /><path
           id="path10244"
           d="m 4973.66,525.762 v -74.121 c 0,-4.731 -1.25,-8.469 -3.32,-10.809 -3.61,-4.293 -9.97,-4.98 -17.05,-0.82 l -62.9,36.136 c -11.23,6.524 -20.22,22.313 -20.22,35.332 v 195.629 c 0,8.75 4.16,14.032 10.25,14.442 2.91,0.281 6.36,-0.582 9.97,-2.653 l 13.42,-7.738 c 8.47,-4.871 16.11,-14.961 19.7,-25.922 l 48.21,-148.527 c 1.23,-3.871 1.94,-7.641 1.94,-10.949"
           style="fill:#3c5b60;fill-opacity:1;fill-rule:nonzero;stroke:none"
           transform="matrix(0.13333333,0,0,-0.13333333,0,530.76)"
           clip-path="none" /><path
           id="path10246"
           d="M 4250.13,1065.03 V 869.391 c 0,-4.86 -1.26,-8.602 -3.46,-10.961 -3.75,-4.301 -9.85,-4.852 -16.91,-0.821 l -62.78,36.289 c -11.2,6.524 -20.37,22.293 -20.37,35.321 v 195.661 c 0,8.59 4.02,13.71 10.12,14.24 3.05,0.44 6.53,-0.39 10.25,-2.6 l 62.78,-36.18 c 11.21,-6.52 20.37,-22.31 20.37,-35.31"
           style="fill:#3c5b60;fill-opacity:1;fill-rule:nonzero;stroke:none"
           transform="matrix(0.13333333,0,0,-0.13333333,0,530.76)"
           clip-path="none" /><path
           id="path10252"
           d="m 3873.9,1305.8 v 0 l -13.96,8.07 0.01,-0.01 -38.17,22.05 38.16,-22.04 13.96,-8.07"
           style="fill:#669ea2;fill-opacity:1;fill-rule:nonzero;stroke:none"
           transform="matrix(0.13333333,0,0,-0.13333333,0,530.76)"
           clip-path="none" /><path
           id="path10254"
           d="m 4064.62,962.801 c -2.67,0 -5.62,0.871 -8.75,2.719 l -14.68,8.46 -63.62,271.83 -103.67,59.99 103.67,-59.99 71.37,-41.14 c 11.22,-6.37 20.36,-22.31 20.36,-35.19 V 973.852 c 0,-4.704 -1.23,-8.461 -3.18,-10.954 v 0 c -0.49,-0.058 -0.99,-0.097 -1.5,-0.097 m -140.94,78.949 -42.81,24.8 -63.6,271.96 -12.04,6.97 c -3.16,1.78 -6.2,2.65 -8.86,2.65 -0.39,0 -0.76,-0.02 -1.13,-0.06 -2.21,-2.35 -3.47,-6.08 -3.47,-10.94 v -37.68 l 49.05,-209.88 -28.67,16.61 c -11.23,6.5 -20.38,22.31 -20.38,35.32 v 195.63 c 0,4.86 1.26,8.59 3.47,10.94 0.37,0.04 0.74,0.06 1.13,0.06 2.66,0 5.7,-0.87 8.86,-2.65 l 12.04,-6.97 4.51,-2.6 38.17,-22.05 63.73,-272.11"
           style="fill:#68aeb3;fill-opacity:1;fill-rule:nonzero;stroke:none"
           transform="matrix(0.13333333,0,0,-0.13333333,0,530.76)"
           clip-path="none" /><path
           id="path10256"
           d="m 4407.94,762.281 -53.2,30.598 c -11.22,6.519 -20.37,22.312 -20.37,35.371 v 195.64 c 0,4.83 1.24,8.56 3.46,10.9 0.34,0.03 0.69,0.04 1.05,0.04 1.77,0 3.64,-0.33 5.59,-1.13 0.69,-0.26 1.38,-0.52 2.07,-0.85 v 0 c -0.69,0.33 -1.38,0.59 -2.07,0.85 l 63.47,-271.419 m 23,49.59 -46.55,199.119 -36.59,21.19 v 0 0 0 l 36.59,-21.19 26.19,-15.119 c 11.21,-6.512 20.36,-22.301 20.36,-35.191 V 811.871"
           style="fill:#68aeb3;fill-opacity:1;fill-rule:nonzero;stroke:none"
           transform="matrix(0.13333333,0,0,-0.13333333,0,530.76)"
           clip-path="none" /><path
           id="path10258"
           d="m 4772.35,787.102 -227.65,131.41 -0.01,0.047 -15.94,9.16 15.94,-9.16 227.66,-131.457"
           style="fill:#669ea2;fill-opacity:1;fill-rule:nonzero;stroke:none"
           transform="matrix(0.13333333,0,0,-0.13333333,0,530.76)"
           clip-path="none" /><path
           id="path10260"
           d="m 4788.09,545.109 c -2.66,0 -5.7,0.879 -8.83,2.692 l -170.97,98.781 -63.59,271.93 227.65,-131.41 c 11.2,-6.563 20.36,-22.364 20.36,-35.383 V 556.09 c 0,-4.84 -1.25,-8.57 -3.45,-10.93 v 0 c -0.38,-0.031 -0.77,-0.051 -1.17,-0.051"
           style="fill:#68aeb3;fill-opacity:1;fill-rule:nonzero;stroke:none"
           transform="matrix(0.13333333,0,0,-0.13333333,0,530.76)"
           clip-path="none" /><path
           id="path10262"
           d="m 4971.72,536.711 -48.21,148.527 39.9,-122.898 8.31,-25.629"
           style="fill:#669ea2;fill-opacity:1;fill-rule:nonzero;stroke:none"
           transform="matrix(0.13333333,0,0,-0.13333333,0,530.76)"
           clip-path="none" /><path
           id="path10264"
           d="m 4968.95,440.73 c -2.6,0 -5.57,0.969 -8.73,2.731 l -62.9,36.18 c -11.23,6.488 -20.23,22.281 -20.23,35.308 V 710.57 c 0,4.731 1.26,8.469 3.33,10.981 0.36,0.039 0.72,0.051 1.09,0.051 2.67,0 5.71,-0.891 8.88,-2.704 l 13.42,-7.738 c 8.47,-4.871 16.11,-14.961 19.7,-25.922 v 0 l 48.21,-148.527 c 1.23,-3.871 1.94,-7.641 1.94,-10.949 v -74.121 c 0,-4.731 -1.25,-8.469 -3.32,-10.809 v 0 c -0.45,-0.07 -0.91,-0.102 -1.39,-0.102"
           style="fill:#68aeb3;fill-opacity:1;fill-rule:nonzero;stroke:none"
           transform="matrix(0.13333333,0,0,-0.13333333,0,530.76)"
           clip-path="none" /><path
           id="path10266"
           d="m 4245.6,858.379 c -2.69,0 -5.76,0.859 -8.93,2.66 l -62.75,36.352 c -11.23,6.488 -20.37,22.289 -20.37,35.308 v 195.631 c 0,4.72 1.24,8.33 3.18,10.79 0.53,0.07 1.06,0.11 1.61,0.11 2.64,0 5.56,-0.88 8.64,-2.71 l 62.78,-36.18 c 11.21,-6.52 20.37,-22.31 20.37,-35.31 V 869.391 c 0,-4.86 -1.26,-8.602 -3.46,-10.961 v 0 c -0.35,-0.039 -0.71,-0.051 -1.07,-0.051"
           style="fill:#68aeb3;fill-opacity:1;fill-rule:nonzero;stroke:none"
           transform="matrix(0.13333333,0,0,-0.13333333,0,530.76)"
           clip-path="none" /><path
           id="path10268"
           d="m 3873.9,1305.8 -13.95,8.06 -0.01,0.01 13.96,-8.07"
           style="fill:#afcdcf;fill-opacity:1;fill-rule:nonzero;stroke:none"
           transform="matrix(0.13333333,0,0,-0.13333333,0,530.76)"
           clip-path="none" /><path
           id="path10270"
           d="m 4041.19,973.98 -117.51,67.77 -63.73,272.11 13.95,-8.06 103.67,-59.99 63.62,-271.83"
           style="fill:#afd4d6;fill-opacity:1;fill-rule:nonzero;stroke:none"
           transform="matrix(0.13333333,0,0,-0.13333333,0,530.76)"
           clip-path="none" /><path
           id="path10272"
           d="m 3880.87,1066.55 -40.05,23.02 -49.05,209.88 v 37.68 c 0,4.86 1.26,8.59 3.47,10.94 0.37,0.04 0.74,0.06 1.13,0.06 2.66,0 5.7,-0.87 8.86,-2.65 l 12.04,-6.97 63.6,-271.96"
           style="fill:#afd4d6;fill-opacity:1;fill-rule:nonzero;stroke:none"
           transform="matrix(0.13333333,0,0,-0.13333333,0,530.76)"
           clip-path="none" /><path
           id="path10274"
           d="m 4544.7,918.512 -15.95,9.207 15.94,-9.16 0.01,-0.047"
           style="fill:#afcdcf;fill-opacity:1;fill-rule:nonzero;stroke:none"
           transform="matrix(0.13333333,0,0,-0.13333333,0,530.76)"
           clip-path="none" /><path
           id="path10276"
           d="m 4608.29,646.582 -72.6,41.969 c -11.24,6.398 -20.37,22.308 -20.37,35.219 v 195.601 c 0,4.867 1.26,8.598 3.33,10.981 0.46,0.058 0.92,0.089 1.39,0.089 2.66,0 5.54,-0.98 8.71,-2.722 v 0 l 15.95,-9.207 63.59,-271.93"
           style="fill:#afd4d6;fill-opacity:1;fill-rule:nonzero;stroke:none"
           transform="matrix(0.13333333,0,0,-0.13333333,0,530.76)"
           clip-path="none" /><path
           id="path10278"
           d="m 4347.8,1032.18 c -0.42,0.24 -0.84,0.47 -1.26,0.67 0.42,-0.19 0.84,-0.41 1.26,-0.67"
           style="fill:#afcdcf;fill-opacity:1;fill-rule:nonzero;stroke:none"
           transform="matrix(0.13333333,0,0,-0.13333333,0,530.76)"
           clip-path="none" /><path
           id="path10280"
           d="m 4426.22,754 c -2.66,0 -5.59,0.879 -8.73,2.738 l -9.55,5.543 -63.47,271.419 c 0.69,-0.26 1.38,-0.52 2.07,-0.85 0.42,-0.2 0.84,-0.43 1.26,-0.67 v 0 l 36.59,-21.19 46.55,-199.119 v -46.812 c 0,-4.727 -1.25,-8.5 -3.19,-10.957 v 0 c -0.5,-0.071 -1.01,-0.102 -1.53,-0.102"
           style="fill:#afd4d6;fill-opacity:1;fill-rule:nonzero;stroke:none"
           transform="matrix(0.13333333,0,0,-0.13333333,0,530.76)"
           clip-path="none" /></g></g><path
       id="path9748-5-16"
       d="m 500.66803,429.97976 v 2.08129 l 7.624,4.42656 v -2.07708 l -7.624,-4.43077"
       style="fill:#4f413c;fill-opacity:1;fill-rule:nonzero;stroke:none;stroke-width:0.133333"
       clip-path="none" /><text
       xml:space="preserve"
       style="font-size:7.20288px;font-family:Kinetika-Bold;-inkscape-font-specification:Kinetika-Bold;text-align:start;writing-mode:lr-tb;direction:ltr;text-anchor:start;fill:#484848;stroke-width:0.189008;-inkscape-stroke:none;fill-opacity:1"
       x="261.12891"
       y="606.22589"
       id="text2"
       transform="rotate(-29.823949)"><tspan
         id="tspan2"
         x="261.12891"
         y="606.22589"
         sodipodi:role="line"
         style="stroke-width:0.189008;fill:#484848;fill-opacity:1">S360726</tspan></text><path
       id="path10266-8"
       d="m 286.64073,247.09287 c -0.35867,0 -0.768,-0.11453 -1.19067,-0.35467 l -8.36667,-4.84693 c -1.49733,-0.86507 -2.716,-2.97187 -2.716,-4.70773 V 211.0994 c 0,-0.62933 0.16534,-1.11066 0.424,-1.43866 0.0707,-0.009 0.14134,-0.0147 0.21467,-0.0147 0.352,0 0.74133,0.11733 1.152,0.36133 l 8.37067,4.824 c 1.49466,0.86934 2.716,2.97467 2.716,4.708 v 26.0852 c 0,0.648 -0.168,1.14694 -0.46134,1.46147 v 0 c -0.0467,0.005 -0.0947,0.007 -0.14266,0.007"
       style="fill:#68aeb3;fill-opacity:1;fill-rule:nonzero;stroke:none;stroke-width:0.133333"
       clip-path="none" /><path
       id="path10266-1"
       d="m 310.80451,261.0285 c -0.35867,0 -0.768,-0.11453 -1.19067,-0.35467 l -8.36667,-4.84693 c -1.49733,-0.86507 -2.716,-2.97187 -2.716,-4.70773 v -26.08414 c 0,-0.62933 0.16534,-1.11066 0.424,-1.43866 0.0707,-0.009 0.14134,-0.0147 0.21467,-0.0147 0.352,0 0.74133,0.11733 1.152,0.36133 l 8.37067,4.824 c 1.49466,0.86934 2.716,2.97467 2.716,4.708 v 26.0852 c 0,0.648 -0.168,1.14694 -0.46134,1.46147 v 0 c -0.0467,0.005 -0.0947,0.007 -0.14266,0.007"
       style="fill:#68aeb3;fill-opacity:1;fill-rule:nonzero;stroke:none;stroke-width:0.133333"
       clip-path="none" /></g></svg>
